<svg id="text" viewBox="0 0 87 40" fill="none" xmlns="http://www.w3.org/2000/svg">
    <path d="M0 6.50007H5.78118V29.6429H11.5624V0.714355H5.78118C2.60153 0.714355 0 3.31793 0 6.50007Z" fill="currentColor"/>
    <path d="M17.3435 29.6429H23.1247V18.0715C23.1247 14.8894 20.5232 12.2858 17.3435 12.2858V29.6429Z" fill="currentColor"/>
    <path d="M28.9059 12.2858V29.6429H34.6871V18.0715H40.4682V23.8572C40.4682 27.0394 43.0698 29.6429 46.2494 29.6429V18.0715C46.2494 14.8894 43.6479 12.2858 40.4682 12.2858H28.9059Z"
          fill="currentColor"/>
    <path d="M80.9365 12.2858H75.1553V6.50007C75.1553 3.31793 72.5538 0.714355 69.3741 0.714355V23.8572H57.8118V18.0715H63.5929V12.2858H57.8118C54.6321 12.2858 52.0306 14.8894 52.0306 18.0715V23.8572C52.0306 27.0394 54.6321 29.6429 57.8118 29.6429H75.1553V18.0715H80.9365V23.8572C80.9365 27.0394 83.538 29.6429 86.7177 29.6429V18.0715C86.7177 14.8894 84.1161 12.2858 80.9365 12.2858Z"
          fill="currentColor"/>
    <path d="M17.3435 6.50007H23.1247C23.1247 3.31793 20.5232 0.714355 17.3435 0.714355V6.50007Z" fill="currentColor"/>
    <path fill-rule="evenodd" clip-rule="evenodd"
          d="M9.01334 35.4287V39.1683H8.48367L6.40281 36.5773V39.1683H5.78125V35.4287H6.31092L8.39178 38.0304V35.4287H9.01334ZM20.7732 39.1683H18.5302V35.4287H20.7191V36.0431H19.195V36.9726H20.557V37.587H19.195V38.554H20.7732V39.1683ZM30.29 36.0431H31.5169V39.1683H32.1817V36.0431H33.4086V35.4287H30.29V36.0431ZM47.5573 35.4287H48.1951L47.1141 39.1683H46.4926L45.5791 36.4651L44.6819 39.1683H44.055L42.9254 35.4287H43.6712L44.4333 38.0945L45.2765 35.4287H45.9359L46.8006 38.0999L47.5573 35.4287ZM58.2636 35.9843C57.896 36.3547 57.7123 36.8124 57.7123 37.3573C57.7123 37.9307 57.8979 38.3955 58.269 38.7516C58.6401 39.1078 59.1103 39.2859 59.6796 39.2859C60.2453 39.2859 60.7156 39.1042 61.0903 38.7409C61.465 38.3777 61.6524 37.9164 61.6524 37.3573C61.6524 36.7874 61.465 36.3227 61.0903 35.9629C60.7192 35.6068 60.2489 35.4287 59.6796 35.4287C59.1103 35.4287 58.6383 35.6139 58.2636 35.9843ZM58.777 38.2975C58.5356 38.0482 58.4149 37.7348 58.4149 37.3573C58.4149 36.9726 58.5338 36.6574 58.7716 36.4117C59.013 36.1659 59.3157 36.0431 59.6796 36.0431C60.0364 36.0431 60.3372 36.1659 60.5822 36.4117C60.8273 36.661 60.9498 36.9762 60.9498 37.3573C60.9498 37.7348 60.8345 38.0482 60.6039 38.2975C60.3769 38.5468 60.0688 38.6715 59.6796 38.6715C59.3193 38.6715 59.0184 38.5468 58.777 38.2975ZM71.8339 37.7793V39.179H71.1691V35.4394C71.3565 35.4394 71.5601 35.4376 71.7799 35.4341C71.9997 35.4305 72.1798 35.4287 72.3204 35.4287C73.2356 35.4287 73.6932 35.8134 73.6932 36.5826C73.6932 36.8676 73.6193 37.1026 73.4716 37.2878C73.3239 37.4659 73.1545 37.587 72.9635 37.6511L74.1472 39.179H73.3419L72.2988 37.7793H71.8339ZM72.2879 36.0431C72.2699 36.0431 72.2411 36.0449 72.2015 36.0484C72.1618 36.0484 72.106 36.0502 72.0339 36.0538H71.8339V37.165H72.2663C72.4789 37.165 72.6519 37.1133 72.7852 37.01C72.9221 36.9067 72.9906 36.7661 72.9906 36.588C72.9906 36.2247 72.7564 36.0431 72.2879 36.0431ZM83.6639 39.1683H84.3287V37.2398L85.8745 39.1683H86.7176L85.0637 37.1703L86.6203 35.4287H85.8204L84.3287 37.2024V35.4287H83.6639V39.1683Z"
          fill="#2F7AEA"/>
</svg>
