<svg id="arbitrum" viewBox="0 0 40 44" fill="none" xmlns="http://www.w3.org/2000/svg">
    <path d="M17.9997 0.524655C19.2375 -0.174885 20.7627 -0.174885 22.0005 0.524655L38.0004 9.567C39.2377 10.2663 40 11.5584 40 12.9568V31.0432C40 32.4416 39.2377 33.7337 38.0004 34.433L22.0005 43.4753C20.7627 44.1749 19.2375 44.1749 17.9997 43.4753L1.99984 34.433C0.762466 33.7337 0.000244141 32.4416 0.000244141 31.0432V12.9568C0.000244141 11.5584 0.762465 10.2663 1.99984 9.567L17.9997 0.524655Z" fill="#96BEDC"/>
    <path d="M19.3998 2.8701C19.8124 2.63681 20.321 2.63681 20.7336 2.8701L36.5669 11.8209C36.9792 12.054 37.2332 12.4847 37.2332 12.9507V30.8535C37.2332 31.3196 36.9792 31.7503 36.5669 31.9834L20.7336 40.9342C20.321 41.1675 19.8124 41.1675 19.3998 40.9342L3.56653 31.9834C3.15416 31.7503 2.90015 31.3196 2.90015 30.8535V12.9507C2.90015 12.4847 3.15416 12.054 3.56653 11.8209L19.3998 2.8701Z" fill="#2D374B"/>
    <path d="M4.39079 35.7844L1.53601 34.171C0.586881 33.6346 0 32.6288 0 31.5386L10.7252 15.4779C11.8949 13.7263 13.8887 12.6706 16.0268 12.6706H19.1165L4.39079 35.7844Z" fill="white"/>
    <path d="M11.2065 39.6363L6.07196 36.7345L21.0332 12.6706H27.5165L11.2065 39.6363Z" fill="white"/>
    <path fill-rule="evenodd" clip-rule="evenodd" d="M32.0537 34.5347L26.363 37.7518L20.1665 28.2631L23.9665 22.0326L32.0537 34.5347ZM37.2332 28.0983V30.8536C37.2332 31.3196 36.9792 31.7503 36.5669 31.9834L33.6755 33.6179L25.0665 20.0917L28.3664 14.6768L37.2332 28.0983Z" fill="#28A0F0"/>
</svg>
