<svg width="60" height="60" viewBox="0 0 60 60" fill="none" xmlns="http://www.w3.org/2000/svg">
<path fill-rule="evenodd" clip-rule="evenodd" d="M32.0005 8.52465C30.7627 7.82512 29.2375 7.82512 27.9997 8.52465L11.9998 17.567C10.7625 18.2663 10.0002 19.5584 10.0002 20.9568V39.0432C10.0002 39.1962 10.0094 39.348 10.0272 39.4978L10 39.5386C10 40.6288 10.5869 41.6346 11.536 42.171L14.3908 43.7844L14.3909 43.7843L16.072 44.7344L16.072 44.7345L21.2065 47.6363L21.2065 47.6362L27.9997 51.4753C29.2375 52.1749 30.7627 52.1749 32.0005 51.4753L48.0004 42.433C49.2377 41.7337 50 40.4416 50 39.0432V20.9568C50 19.5584 49.2377 18.2663 48.0004 17.567L32.0005 8.52465ZM29.1165 20.6706L15.9529 41.3325L17.6061 42.267L31.0332 20.6706H37.5165L22.7091 45.1519L29.3998 48.9342C29.8124 49.1675 30.321 49.1675 30.7336 48.9342L36.363 45.7518L30.1665 36.2631L33.9665 30.0327L42.0537 42.5348L43.6755 41.618L35.0665 28.0918L38.3664 22.6768L47.2332 36.0983V20.9507C47.2332 20.4847 46.9792 20.054 46.5669 19.8209L30.7336 10.8701C30.321 10.6368 29.8124 10.6368 29.3998 10.8701L13.5665 19.8209C13.1542 20.054 12.9001 20.4847 12.9001 20.9507V35.1957L20.7252 23.4779C21.8949 21.7263 23.8887 20.6706 26.0268 20.6706H29.1165Z" fill="#7E96B8"/>
</svg>
