<svg id="avalanche" width="24" height="24" viewBox="0 0 60 60" fill="none" xmlns="http://www.w3.org/2000/svg">
    <circle cx="30" cy="30" r="30" fill="#D64F4A"/>
    <path fill-rule="evenodd" clip-rule="evenodd" d="M22.4629 42.5H16.6C15.2099 42.5 14.5148 42.5 14.0986 42.2256C13.6487 41.9293 13.3649 41.4318 13.3348 40.8872C13.3069 40.3831 13.6512 39.7686 14.3397 38.5396L14.34 38.5391L27.1766 15.6247C27.8752 14.3775 28.2246 13.7538 28.6691 13.5217C29.1493 13.2709 29.7187 13.2705 30.1992 13.5206C30.6441 13.752 30.9943 14.3752 31.6947 15.6213L34.6553 20.8883L34.6554 20.8884C35.1647 21.7945 35.4194 22.2476 35.5314 22.7256C35.6533 23.246 35.6535 23.7882 35.5321 24.3086C35.4205 24.7867 35.1662 25.2401 34.6575 26.1468L26.9814 39.8297C26.4654 40.7496 26.2074 41.2096 25.8538 41.5534C25.469 41.9276 25.0024 42.2034 24.4924 42.358C24.0237 42.5 23.5035 42.5 22.4629 42.5ZM43.3802 42.5H36.5828C35.1801 42.5 34.4787 42.5 34.0611 42.2233C33.6099 41.9243 33.327 41.4232 33.3003 40.8759C33.2756 40.3694 33.6286 39.7523 34.3345 38.5183L37.7276 32.5866C38.4247 31.3682 38.7733 30.7589 39.2145 30.5307C39.6914 30.2841 40.2553 30.2837 40.7326 30.5296C41.1742 30.7571 41.5235 31.3658 42.2221 32.583L42.2223 32.5834L45.6266 38.515C46.3353 39.7498 46.6896 40.3672 46.6654 40.8741C46.6392 41.4218 46.3564 41.9235 45.905 42.223C45.4874 42.5 44.785 42.5 43.3802 42.5Z" fill="white"/>
</svg>
