<svg id="avalanche" width="24" height="24" viewBox="0 0 24 24" fill="none" xmlns="http://www.w3.org/2000/svg">
    <path fill-rule="evenodd" clip-rule="evenodd" d="M8.38224 18H5.56802C4.90079 18 4.56716 18 4.36735 17.8683C4.15142 17.7261 4.01518 17.4873 4.00075 17.2259C3.98737 16.9839 4.15261 16.6889 4.48309 16.099L4.48324 16.0988L10.6448 5.09986C10.9802 4.50119 11.1478 4.20186 11.3612 4.09043C11.5917 3.97005 11.865 3.96984 12.0957 4.0899C12.3092 4.20099 12.4773 4.5001 12.8135 5.09824L14.2346 7.62639L14.2346 7.62646C14.4791 8.06137 14.6013 8.27887 14.6551 8.5083C14.7136 8.7581 14.7137 9.01833 14.6554 9.26813C14.6019 9.49764 14.4798 9.71528 14.2357 10.1505L10.5511 16.7183C10.3034 17.1598 10.1796 17.3806 10.0099 17.5456C9.82517 17.7253 9.60119 17.8577 9.35637 17.9319C9.13142 18 8.88171 18 8.38224 18ZM18.4225 18H15.1598C14.4865 18 14.1498 18 13.9494 17.8672C13.7328 17.7237 13.597 17.4831 13.5842 17.2204C13.5723 16.9773 13.7418 16.6811 14.0806 16.0888L15.7093 13.2416C16.0439 12.6567 16.2112 12.3643 16.423 12.2548C16.6519 12.1364 16.9226 12.1362 17.1517 12.2542C17.3637 12.3634 17.5313 12.6556 17.8667 13.2399L17.8667 13.2401L19.5008 16.0872C19.841 16.6799 20.0111 16.9763 19.9994 17.2196C19.9869 17.4825 19.8511 17.7233 19.6344 17.867C19.434 18 19.0968 18 18.4225 18Z" fill="white"/>
</svg>
