<svg width="24" height="24" viewBox="0 0 60 60" fill="none" xmlns="http://www.w3.org/2000/svg">
    <circle cx="30" cy="30" r="30" fill="#F0B90B"/>
    <path d="M20.7904 18.361L30.0002 13L39.21 18.361L35.8239 20.3414L30.0002 16.961L24.1761 20.3414L20.7904 18.361ZM39.21 25.122L35.8239 23.1414L30.0002 26.522L24.1761 23.1414L20.7904 25.122V29.083L26.6141 32.4632V39.2244L30.0002 41.2049L33.3862 39.2244V32.4632L39.21 29.083V25.122ZM39.21 35.8438V31.8828L35.8239 33.8633V37.8243L39.21 35.8438ZM41.614 37.2439L35.7902 40.6242V44.5852L45 39.2244V28.5025L41.614 30.4827V37.2439ZM38.2279 21.7414L41.614 23.7219V27.6829L45 25.7024V21.7414L41.614 19.761L38.2279 21.7414ZM26.6141 42.0585V46.0195L30.0002 48L33.3862 46.0195V42.0585L30.0002 44.039L26.6141 42.0585ZM20.7904 35.8438L24.1761 37.8243V33.8633L20.7904 31.8828V35.8438ZM26.6141 21.7414L30.0002 23.7219L33.3862 21.7414L30.0002 19.761L26.6141 21.7414ZM18.386 23.7219L21.7721 21.7414L18.386 19.761L15 21.7414V25.7024L18.386 27.6829V23.7219ZM18.386 30.4827L15 28.5025V39.2244L24.2101 44.5852V40.6242L18.386 37.2439V30.4827Z" fill="white"/>
</svg>
