<svg id="fantom"
     width="60" height="60" viewBox="0 0 60 60" fill="none" xmlns="http://www.w3.org/2000/svg">
    <circle cx="30" cy="30" r="30" fill="#0A15EE"/>
    <path d="M28.17 9.54586C29.1968 9.04029 30.7591 9.04029 31.7858 9.54586L42.2627 14.7047C42.881 15.0092 43.2206 15.4629 43.2815 15.9313H43.2915V41.8625C43.2779 42.3733 42.9351 42.8808 42.2627 43.212L31.7858 48.3708C30.7591 48.8764 29.1968 48.8764 28.17 48.3708L17.6932 43.212C17.0236 42.8823 16.7023 42.3712 16.6864 41.8625C16.6848 41.8124 16.6846 41.7706 16.6861 41.736L16.6861 16.0979C16.685 16.0698 16.6849 16.0417 16.6858 16.0138L16.6864 15.9313L16.6911 15.9313C16.7376 15.4578 17.0618 15.0156 17.6932 14.7047L28.17 9.54586ZM41.6422 30.3982L31.7858 35.2515C30.7591 35.7571 29.1968 35.7571 28.17 35.2515L18.3352 30.409V41.8111L28.17 46.6282C28.7254 46.905 29.3018 47.1746 29.8654 47.209L29.9779 47.2124C30.5652 47.2142 31.1354 46.9362 31.7136 46.6731L41.6422 41.7697V30.3982ZM14.9823 41.2987C14.9823 42.292 15.1062 42.9451 15.3521 43.4053C15.5559 43.7866 15.8618 44.0779 16.4202 44.4326L16.4521 44.4527C16.5746 44.5297 16.7096 44.6104 16.8739 44.705L17.0677 44.8157L17.6628 45.1506L16.8093 46.4662L16.1433 46.0911L16.0313 46.027C15.8387 45.916 15.6791 45.8211 15.5302 45.7274C13.9387 44.727 13.3451 43.6366 13.3334 41.3677L13.3333 41.2987H14.9823ZM29.1531 23.4478C29.0769 23.4723 29.0054 23.5005 28.9402 23.5326L18.4633 28.6915C18.4524 28.6969 18.4419 28.7022 18.4319 28.7075L18.423 28.7123L18.4395 28.7211L18.4633 28.7332L28.9402 33.8921C29.0054 33.9242 29.0769 33.9524 29.1531 33.9768V23.4478ZM30.8027 23.4478V33.9768C30.879 33.9524 30.9505 33.9242 31.0156 33.8921L41.4925 28.7332C41.5035 28.7278 41.514 28.7224 41.524 28.7171L41.5329 28.7123L41.5164 28.7036L41.4925 28.6915L31.0156 23.5326C30.9505 23.5005 30.879 23.4723 30.8027 23.4478ZM41.6422 17.7708L32.2438 22.3986L41.6422 27.0265V17.7708ZM18.3352 17.7816V27.0156L27.7118 22.3986L18.3352 17.7816ZM31.0156 10.9053C30.4708 10.637 29.4851 10.637 28.9402 10.9053L18.4633 16.0642C18.4524 16.0696 18.4419 16.075 18.4319 16.0802L18.423 16.085L18.4395 16.0938L18.4633 16.1059L28.9402 21.2648C29.4851 21.5331 30.4708 21.5331 31.0156 21.2648L41.4925 16.1059C41.5035 16.1005 41.514 16.0951 41.524 16.0898L41.5329 16.085L41.5164 16.0763L41.4925 16.0642L31.0156 10.9053ZM43.1905 11.471L43.8566 11.8461L43.9685 11.9101C44.1611 12.021 44.3207 12.1162 44.4696 12.2097C46.0611 13.2101 46.6547 14.3007 46.6662 16.5694L46.6666 16.6385H45.0175C45.0175 15.645 44.8936 14.992 44.6477 14.5319C44.4439 14.1506 44.1381 13.8592 43.5796 13.5046L43.5478 13.4845C43.4252 13.4075 43.2902 13.3268 43.1259 13.2319L42.9321 13.1213L42.337 12.7865L43.1905 11.471Z" fill="white"/>
</svg>
