<svg id="fantom"
     width="24" height="24"
     viewBox="0 0 24 24" fill="none" xmlns="http://www.w3.org/2000/svg">
    <path d="M11.1217 2.182C11.6145 1.93933 12.3644 1.93933 12.8572 2.182L17.8861 4.65826C18.1829 4.80441 18.3459 5.0222 18.3752 5.24702H18.3799V17.694C18.3734 17.9392 18.2089 18.1828 17.8861 18.3417L12.8572 20.818C12.3644 21.0607 11.6145 21.0607 11.1217 20.818L6.09277 18.3417C5.77137 18.1835 5.61714 17.9381 5.6095 17.694C5.60874 17.6699 5.60865 17.6499 5.60938 17.6333L5.60935 5.32697C5.60884 5.31349 5.60879 5.30003 5.6092 5.28662L5.6095 5.24702L5.61175 5.247C5.63409 5.01972 5.7897 4.8075 6.09277 4.65826L11.1217 2.182ZM17.5883 12.1911L12.8572 14.5207C12.3644 14.7634 11.6145 14.7634 11.1217 14.5207L6.40095 12.1963V17.6693L11.1217 19.9815C11.3882 20.1144 11.6649 20.2438 11.9354 20.2603L11.9894 20.2619C12.2713 20.2628 12.545 20.1294 12.8226 20.0031L17.5883 17.6494V12.1911ZM4.79156 17.4234C4.79156 17.9001 4.85101 18.2136 4.96905 18.4345C5.06689 18.6175 5.21368 18.7574 5.48173 18.9276L5.49703 18.9373C5.55585 18.9742 5.62066 19.013 5.69953 19.0584L5.79255 19.1115L6.07819 19.2723L5.66851 19.9038L5.34881 19.7237L5.29507 19.693C5.20263 19.6397 5.12601 19.5941 5.05455 19.5491C4.29061 19.0689 4.00571 18.5456 4.00009 17.4565L4 17.4234H4.79156ZM11.5936 8.85495C11.5569 8.86668 11.5226 8.88023 11.4913 8.89564L6.46245 11.3719C6.45717 11.3745 6.45213 11.3771 6.44735 11.3796L6.44309 11.3819L6.45098 11.3861L6.46245 11.3919L11.4913 13.8682C11.5226 13.8836 11.5569 13.8971 11.5936 13.9089V8.85495ZM12.3853 8.85495V13.9089C12.422 13.8971 12.4563 13.8836 12.4875 13.8682L17.5165 11.3919C17.5217 11.3893 17.5268 11.3868 17.5315 11.3842L17.5358 11.3819L17.5279 11.3777L17.5165 11.3719L12.4875 8.89564C12.4563 8.88023 12.422 8.86668 12.3853 8.85495ZM17.5883 6.12997L13.0771 8.35133L17.5883 10.5727V6.12997ZM6.40095 6.13516V10.5675L10.9017 8.35133L6.40095 6.13516ZM12.4875 2.83454C12.226 2.70576 11.7529 2.70576 11.4913 2.83454L6.46245 5.3108C6.45717 5.3134 6.45213 5.31597 6.44735 5.31851L6.44309 5.32081L6.45098 5.32502L6.46245 5.33083L11.4913 7.80709C11.7529 7.93585 12.226 7.93585 12.4875 7.80709L17.5165 5.33083C17.5217 5.32823 17.5268 5.32566 17.5315 5.32311L17.5358 5.32081L17.5279 5.31659L17.5165 5.3108L12.4875 2.83454ZM18.3315 3.10609L18.6512 3.2861L18.7049 3.31685C18.7974 3.37005 18.874 3.41575 18.9455 3.46067C19.7094 3.94082 19.9943 4.46431 19.9998 5.5533L20 5.58648H19.2084C19.2084 5.10958 19.149 4.79614 19.031 4.57531C18.9331 4.39229 18.7863 4.25242 18.5183 4.08222L18.503 4.07255C18.4442 4.03558 18.3793 3.99685 18.3005 3.95133L18.2074 3.89821L17.9218 3.73752L18.3315 3.10609Z" fill="white"/>
</svg>
