<svg width="60" height="60" viewBox="0 0 60 60" fill="none" xmlns="http://www.w3.org/2000/svg">
<circle cx="30" cy="30" r="30" fill="#037A5B"/>
<path fill-rule="evenodd" clip-rule="evenodd" d="M12.8722 16.6563L30.071 33.3792L47.0547 17.0042L46.4071 16.3084C42.1983 11.7792 36.1519 9.16669 29.8559 9.16669H29.8193C23.5943 9.16669 17.8018 11.6063 13.5564 15.9604L12.8722 16.6563ZM30.0732 30.6271L15.6802 16.6563C19.4931 13.0688 24.4937 11.1167 29.8559 11.1167H29.8924C35.289 11.1167 40.4704 13.2438 44.2854 16.9354L30.0732 30.6271Z" fill="white"/>
<path d="M45.8326 21.1167L47.4162 19.5834L47.8102 20.2104C49.7875 23.3729 50.833 26.9991 50.8334 30.6959C50.7988 41.8104 41.4774 50.8334 30 50.8334H29.9634C18.4861 50.8334 9.13028 41.7396 9.16685 30.6271C9.17001 26.9261 10.2281 23.2978 12.2245 20.1417L12.5838 19.55L14.4903 21.3959C14.1309 21.9167 13.806 22.475 13.5908 23.1021C12.0805 27.1084 14.2385 31.5334 18.4129 32.9959C20.896 33.8313 23.5233 33.4479 25.5739 32.125L30 36.4459L35.0738 31.5334C35.5429 31.8479 36.0809 32.0917 36.6575 32.3C40.7243 33.6938 45.1849 31.6375 46.6244 27.7354C47.4872 25.4375 47.0913 23.0334 45.8326 21.1167Z" fill="white"/>
<path d="M15.9685 26.1688C15.9676 25.2642 16.2704 24.3838 16.8314 23.6604L22.8046 29.4084C22.0859 29.9646 21.1865 30.2792 20.2139 30.2792C17.875 30.2792 15.9685 28.4334 15.9685 26.1688Z" fill="white"/>
<path d="M37.6645 29.0584C38.3488 29.5104 39.1406 29.7542 40.0401 29.7542C42.379 29.7542 44.2854 27.9084 44.2854 25.6438C44.2854 24.8084 44.0337 24.0063 43.5668 23.3438L37.6645 29.0584Z" fill="white"/>
</svg>
