<svg id="klaytn" width="22" height="22" viewBox="0 0 22 22" fill="none" xmlns="http://www.w3.org/2000/svg">
    <path d="M11 22C17.0751 22 22 17.0751 22 11C22 4.92487 17.0751 0 11 0C11.1322 7.37499e-07 11.2638 0.00233272 11.3949 0.00695707L5.78942 14.7632L18.0465 2.55301C18.5627 2.98407 19.0387 3.46155 19.4683 3.97905L12.4473 11L19.4465 18.0471C19.0371 18.5372 18.5859 18.9912 18.0983 19.4035L10.9999 12.3509L3.95026 19.4443C5.85927 21.0398 8.3175 22 11 22Z" fill="white"/>
    <path d="M2.48896 17.9692L8.68415 1.73684L0.018642 10.3542C0.00627117 10.5679 0 10.7832 0 11C0 13.6449 0.933484 16.0718 2.48896 17.9692Z" fill="white"/>
</svg>
