<svg id="optimism" width="24" height="24" viewBox="0 0 24 24" fill="none" xmlns="http://www.w3.org/2000/svg">
    <path d="M11 22C17.0751 22 22 17.0751 22 11C22 4.92487 17.0751 0 11 0C4.92487 0 0 4.92487 0 11C0 17.0751 4.92487 22 11 22Z" fill="white"/>
    <path fill-rule="evenodd" clip-rule="evenodd" d="M6.18269 13.461C6.601 13.7692 7.13762 13.9234 7.7926 13.9234C8.58522 13.9234 9.21816 13.739 9.69151 13.3702C10.1649 12.9959 10.4979 12.4318 10.6905 11.6777C10.8061 11.2154 10.9052 10.7393 10.9877 10.2494C11.0153 10.0733 11.029 9.92741 11.029 9.81182C11.029 9.42656 10.9327 9.0963 10.74 8.82112C10.5474 8.5404 10.2832 8.33122 9.94746 8.19364C9.6117 8.05055 9.23193 7.979 8.80812 7.979C7.25048 7.979 6.2845 8.7358 5.91024 10.2494C5.77815 10.8053 5.67634 11.2814 5.60475 11.6777C5.57725 11.8538 5.56348 12.0025 5.56348 12.1235C5.56348 12.7015 5.76988 13.1473 6.18269 13.461ZM8.69254 12.462C8.47786 12.6437 8.21646 12.7345 7.90819 12.7345C7.37984 12.7345 7.11562 12.4813 7.11562 11.9749C7.11562 11.8538 7.12662 11.7382 7.14866 11.6282C7.24771 11.0943 7.3468 10.6429 7.44588 10.2742C7.53943 9.89991 7.69356 9.62196 7.90819 9.44029C8.12837 9.25866 8.39254 9.16784 8.70081 9.16784C9.22366 9.16784 9.48511 9.41829 9.48511 9.91914C9.48511 10.0403 9.47411 10.1586 9.45211 10.2742C9.38606 10.6594 9.2897 11.1108 9.16312 11.6282C9.06957 12.0025 8.91271 12.2804 8.69254 12.462ZM11.2686 13.7828C11.3016 13.8213 11.3484 13.8406 11.4089 13.8406H12.5317C12.5867 13.8406 12.6391 13.8213 12.6886 13.7828C12.7381 13.7442 12.7684 13.6947 12.7794 13.6342L13.1592 11.8261H14.2738C14.9948 11.8261 15.5617 11.6747 15.9745 11.372C16.3928 11.0693 16.6708 10.6014 16.8084 9.96846C16.8414 9.81988 16.8579 9.67674 16.8579 9.53916C16.8579 9.0603 16.6708 8.69431 16.2965 8.44109C15.9277 8.18792 15.4379 8.06133 14.8269 8.06133H12.6308C12.5757 8.06133 12.5235 8.0806 12.4739 8.1191C12.4244 8.15764 12.3941 8.20719 12.3831 8.26773L11.2438 13.6342C11.2328 13.6892 11.241 13.7387 11.2686 13.7828ZM14.9342 10.4969C14.7636 10.6234 14.5627 10.6868 14.3316 10.6868H13.3821L13.6958 9.20894H14.6866C14.9122 9.20894 15.0718 9.25294 15.1654 9.34102C15.259 9.42357 15.3058 9.54466 15.3058 9.70429C15.3058 9.77583 15.2975 9.85838 15.281 9.95196C15.226 10.1886 15.1104 10.3703 14.9342 10.4969Z" fill="#FF0420"/>
</svg>
