<svg id="polygon" width="24" height="24" viewBox="0 0 24 24" fill="none" xmlns="http://www.w3.org/2000/svg">
<path fill-rule="evenodd" clip-rule="evenodd" d="M16.4871 5.11104C16.2153 4.96299 15.8847 4.96299 15.6129 5.11104L11.5629 7.31692C11.2772 7.47254 11.1 7.76779 11.1 8.08824V9.5228L12.9 10.5147V8.60741L16.05 6.89173L19.2 8.60741V11.9808L16.05 13.6965L8.38708 9.5228C8.11526 9.37475 7.78474 9.37475 7.51292 9.5228L3.46292 11.7287C3.1772 11.8843 3 12.1796 3 12.5V16.9118C3 17.2322 3.1772 17.5275 3.46292 17.6831L7.51292 19.889C7.78474 20.037 8.11526 20.037 8.38708 19.889L12.4371 17.6831C12.7228 17.5275 12.9 17.2322 12.9 16.9118V15.4772L11.1 14.4853V16.3926L7.95 18.1083L4.8 16.3926V13.0192L7.95 11.3035L15.6129 15.4772C15.8847 15.6252 16.2153 15.6252 16.4871 15.4772L20.5371 13.2713C20.8228 13.1157 21 12.8204 21 12.5V8.08824C21 7.76779 20.8228 7.47254 20.5371 7.31692L16.4871 5.11104Z" fill="white"/>
</svg> 
