<svg width="64" height="64" viewBox="0 0 64 64" fill="none" xmlns="http://www.w3.org/2000/svg">
    <g clip-path="url(#clip0_740_257)">
        <path d="M0 32C0 14.3269 14.3269 0 32 0C49.6731 0 64 14.3269 64 32C64 49.6731 49.6731 64 32 64C14.3269 64 0 49.6731 0 32Z" fill="#CCE1FF"/>
        <path fill-rule="evenodd" clip-rule="evenodd" d="M21.6062 21.6879L19.3164 20.1946C17.4896 19.0032 11.6691 14.7645 7.41818 11.6353C4.86965 9.75924 2.82211 8.23552 2.53622 8.0016L2.52878 7.99552C2.22469 7.74211 1.97184 7.41358 1.89659 6.99967C1.85926 6.79439 1.87334 6.60404 1.91587 6.44098C1.93662 6.36146 1.96321 6.2918 1.99096 6.23251C2.00484 6.20288 2.01904 6.17574 2.03303 6.15112C2.04004 6.1388 2.047 6.12708 2.05387 6.11597L2.0641 6.09973L2.06915 6.09194L2.07166 6.08813C2.07166 6.08813 1.82163 6.40356 2.27679 6.70561C2.39031 6.78143 2.78423 6.55775 2.96167 6.67605C2.96167 6.67605 2.83667 6.86355 3.21167 7.17605C3.24207 7.20092 3.29678 7.24363 3.37384 7.30271C3.38618 7.31217 3.39909 7.32205 3.41256 7.33234C3.47376 7.37909 3.54661 7.43437 3.63037 7.49762C3.76945 7.60266 3.9386 7.72969 4.13435 7.87612C5.0102 8.53132 6.41869 9.57502 8.05053 10.7763C11.5445 13.3483 16.0623 16.6427 18.5678 18.3929C19.1203 18.7788 19.5749 19.0897 19.8991 19.3011L17.9616 11.676C13.3437 9.98774 7.14775 7.78663 4.63937 6.92186C4.39031 6.836 4.17761 6.76331 4.00641 6.70561C3.87663 6.66187 3.77071 6.62673 3.69088 6.601L3.68398 6.59878C3.59875 6.57137 3.54451 6.55512 3.52417 6.55105C3.08667 6.48855 2.96167 6.67605 2.96167 6.67605C2.78423 6.55775 2.39031 6.78143 2.27679 6.70561C1.82253 6.4022 2.07518 6.08283 2.07518 6.08283L2.0783 6.07819L2.08258 6.07191L2.09153 6.05909C2.09766 6.05043 2.10415 6.04153 2.111 6.03243C2.1247 6.01423 2.13988 5.99519 2.15663 5.97557C2.19016 5.93629 2.22996 5.89471 2.27679 5.85281C2.37142 5.76814 2.49086 5.68569 2.63747 5.61905C2.9384 5.48227 3.28976 5.44007 3.67502 5.4951L3.70433 5.49929L3.73336 5.5051C3.82199 5.52282 3.93426 5.55885 3.99184 5.57733L3.99948 5.57978C4.0863 5.6076 4.20017 5.64532 4.33633 5.69118C4.60954 5.7832 4.98621 5.91264 5.44435 6.07171C6.36137 6.39012 7.6137 6.8304 9.03669 7.3347C11.8827 8.34331 15.4174 9.61016 18.3278 10.6742L18.8567 10.8676L21.6062 21.6879Z" fill="#CCE1FF"/>
        <path d="M22.9617 20.0514L20.9617 35.1139V38.6139L17.5867 43.3639L19.4617 50.1139L23.9617 51.5514L26.7117 49.9889L32.8993 49.2389L37.7743 44.6764V37.8639L44.0243 31.4264L48.0868 34.1139L52.0868 41.6764V51.3639L47.3069 60.1088C57.2527 54.6812 64 44.1287 64 32.0003C64 15.9854 52.2355 2.71823 36.8771 0.369629L25.2117 7.61388L21.4617 13.3639L9.44916 9.29662C9.17865 9.56532 8.91292 9.83882 8.6521 10.117L22.9617 20.0514Z" fill="white"/>
        <path d="M63.9097 29.5782C60.0905 19.3664 49.6321 14.1431 48.9617 13.8637C51.5867 22.4887 45.7742 27.3012 41.8367 27.3637C39.6492 27.3637 36.7117 28.8012 36.7117 28.8012L33.7117 36.1762L32.4617 36.8637L34.1492 32.4262C34.1492 32.4262 29.0867 35.1137 28.7117 35.3637C28.3367 35.6137 27.0242 38.2387 26.0242 40.9887C25.4963 39.3465 24.363 38.3097 24.1738 38.1366C24.1614 38.1253 24.153 38.1176 24.1492 38.1137C24.1557 38.1463 24.1758 38.232 24.2062 38.3611C24.4665 39.4693 25.4785 43.7768 25.0867 45.1762C24.6492 46.8012 21.8992 48.2387 21.8992 48.2387L26.3992 49.2387L26.7117 49.3012L29.4617 45.8637L30.0242 41.2387L31.3367 39.9887C31.3367 39.9887 34.9617 39.0512 34.8992 42.4262C34.8992 43.4767 34.1418 43.9003 33.1166 44.4738C32.5559 44.7874 31.915 45.1459 31.2742 45.6762C30.2117 46.5512 28.8367 47.8637 28.1492 48.7387L30.4617 49.9887C30.4617 49.9887 32.9617 49.2387 36.1492 45.8637C39.3992 42.4262 37.0867 39.4887 37.0867 39.4887L42.0242 31.4887L46.5242 30.8637L54.4617 38.5512L54.7117 47.8012C53.7808 49.7476 52.3057 52.9829 51.1978 55.4129C50.6692 56.5723 50.2241 57.5485 49.9617 58.1137C54.5242 55.1137 57.9617 50.4887 59.4617 45.1762C59.5867 44.6762 60.1492 44.3637 60.7742 44.0512C60.8616 44.0013 60.9541 43.9513 61.0465 43.9014C61.4165 43.7014 61.7867 43.5012 61.8367 43.3012C62.0867 41.8637 62.2117 40.4262 62.2117 38.9887C62.2117 38.7387 61.7117 38.1762 61.2742 37.8012C60.7742 37.3012 60.2742 36.8012 60.2117 36.3012C59.6492 30.8012 57.0242 25.6137 52.9617 21.8012L53.3992 21.3637C57.5867 25.2387 60.2117 30.5512 60.8367 36.2387C60.8367 36.5512 61.2742 36.9887 61.7117 37.3637C62.2742 37.9262 62.8367 38.4887 62.8367 39.0512C62.8367 39.6278 62.8182 40.2043 62.7813 40.7772C63.575 37.9882 64 35.0438 64 32.0002C64 31.1854 63.9695 30.3777 63.9097 29.5782Z" fill="#94A6C3"/>
        <path d="M61.4941 44.435C60.4164 46.9881 59.0168 49.3722 57.3463 51.5365C58.544 49.6473 59.4757 47.5923 60.0867 45.4262C60.135 45.2813 60.4823 45.0616 60.8106 44.8538C60.9069 44.7929 61.0016 44.7329 61.0867 44.6762C61.1221 44.655 61.1575 44.6339 61.1929 44.613L61.3012 44.5492C61.3664 44.5108 61.4309 44.4729 61.4941 44.435Z" fill="#94A6C3"/>
        <path d="M41.7742 7.36369C41.7742 7.36369 45.3992 7.17619 48.7117 7.86369C43.1835 17.2377 34.0155 14.5372 33.2611 14.315C33.2309 14.3061 33.2141 14.3012 33.2117 14.3012C40.5867 12.8637 41.7742 7.36369 41.7742 7.36369Z" fill="#94A6C3"/>
        <path d="M37.7117 5.05154C37.7117 5.05154 38.2742 7.55154 36.8367 9.23904C35.0242 11.3015 33.4617 11.239 33.5242 11.239L37.7117 5.05154Z" fill="#152943"/>
        <path d="M23.2741 40.5517L22.7741 43.0517C22.7741 43.0517 23.7741 42.9267 23.7741 44.0517C23.7741 44.9267 22.7741 46.1142 21.9616 46.1767C21.1491 46.2392 20.8366 45.2392 21.0241 44.6767C21.2116 44.1767 23.2741 40.5517 23.2741 40.5517Z" fill="#152943"/>
        <path d="M34.4616 24.0516C35.6491 22.6766 35.0241 20.1141 32.8366 19.6766C33.3991 18.3641 34.2116 15.7391 34.2116 15.7391C34.2116 15.7391 27.8366 25.7391 27.2741 25.9266C26.7116 26.1141 26.1491 23.9266 26.1491 23.9266C24.9616 28.4891 28.1491 29.1141 28.5241 27.6766C30.2741 27.2391 33.2741 25.3641 34.4616 24.0516Z" fill="#152943"/>
        <path fill-rule="evenodd" clip-rule="evenodd" d="M53.3363 55.8496C49.0516 59.6855 43.727 62.3837 37.8376 63.4693C45.3932 61.1432 50.8366 54.5415 50.8366 46.7391C50.8366 41.2391 48.1491 36.3016 43.8366 33.0516C43.8366 33.0516 41.6491 35.8641 40.4616 37.4266C39.5241 38.7391 38.7116 40.0516 38.8991 41.5516C39.1491 43.1766 38.6491 44.8016 37.7116 45.9891C37.3152 46.4516 36.4648 47.1934 35.5481 47.9931L35.5471 47.994C34.7297 48.7071 33.8596 49.4661 33.2116 50.1141C32.2741 50.9891 30.9616 51.1766 29.9616 51.1766C29.7246 51.1766 29.5057 51.1582 29.3054 51.1414C29.136 51.1272 28.9798 51.1141 28.8366 51.1141H28.6491C27.8991 51.1141 27.5866 51.3016 26.5241 52.2391C26.2741 52.4891 25.7116 52.6141 25.0866 52.6141C23.3366 52.6141 20.7116 51.8016 19.6491 51.4266C18.2116 50.8641 16.5866 45.8016 16.4616 44.6141C16.3871 43.9059 17.2906 42.1974 18.0851 40.695C18.6229 39.6781 19.1107 38.7557 19.2116 38.3016C19.4616 37.1766 20.5866 27.9891 20.7116 26.9266C20.8366 25.8641 20.7741 25.1141 19.8991 23.6766C19.2741 22.6141 19.2741 21.5516 19.8991 19.3016C18.1043 18.1311 12.3149 13.9159 8.0505 10.7767C8.05048 10.7768 8.05053 10.7767 8.0505 10.7767C5.48398 8.88745 3.46996 7.38787 3.21165 7.17652C2.83665 6.86402 2.96165 6.67652 2.96165 6.67652C2.96165 6.67652 3.08665 6.48902 3.52415 6.55152C3.83665 6.61402 12.1491 9.5515 17.9616 11.6765C16.7777 8.00013 17.442 5.05373 18.406 3.02308C22.5319 1.08416 27.1394 0.000488281 31.9999 0.000488281C46.4155 0.000488281 58.6047 9.53257 62.6084 22.6376C58.7029 15.3804 51.3976 10.2203 42.8366 9.30161C42.3991 9.98911 41.9616 10.6141 41.5241 11.1141C42.4616 13.4266 44.8991 19.4891 44.8991 19.8016C44.8991 20.1766 43.7116 23.2391 43.5866 23.3641C43.4616 23.4266 42.0241 23.5516 41.4616 23.5516C40.8366 25.0516 40.2116 26.4891 40.0866 26.6766C39.8991 26.9266 39.3366 27.1141 38.1491 27.4266C38.0224 27.4646 37.8822 27.5054 37.7391 27.547C37.177 27.7104 36.5612 27.8895 36.4616 27.9891C36.1491 28.3641 34.4616 32.8016 33.3366 35.9266C34.8366 35.6766 36.1491 35.9891 36.4616 36.1141C38.8991 31.4891 40.8366 28.9891 41.3366 28.9891C41.3897 28.9825 41.5044 28.9864 41.6692 28.9921C43.0572 29.0399 48.0198 29.2107 50.0866 24.2391C52.3029 18.8215 49.1827 14.1922 48.9693 13.8755L48.9616 13.8641L48.9715 13.8689C49.2472 14.0027 54.1068 16.3603 55.3366 23.7391C58.1491 27.3016 59.9616 31.6141 60.4616 36.1766C60.4616 36.4102 60.7411 36.7137 61.0127 37.0087C61.1044 37.1083 61.1953 37.207 61.2741 37.3016C61.8366 37.8641 62.3991 38.4266 62.3991 38.9891C62.3991 40.2841 62.306 41.5791 62.1196 42.8339C61.9858 43.206 61.8452 43.5749 61.6981 43.9405C61.4296 44.1995 61.0393 44.419 60.6491 44.6141C60.5641 44.6708 60.4694 44.7307 60.373 44.7917C60.0447 44.9994 59.6974 45.2191 59.6491 45.3641C58.5405 49.345 56.2943 52.9603 53.3363 55.8496ZM35.9616 44.4266C35.7691 44.6673 35.0945 45.2788 34.452 45.8612L34.4506 45.8624C34.2594 46.0358 34.071 46.2065 33.8991 46.3641C33.6385 46.603 33.3699 46.8423 33.1046 47.0786C32.6068 47.5221 32.1193 47.9564 31.7116 48.3641C31.4616 48.6141 30.9616 48.7391 30.2116 48.7391H28.3366C29.2741 47.4891 32.0241 44.6141 32.9616 43.9891C34.0866 43.2391 34.6491 42.4891 33.9616 41.1766C33.2741 39.8641 31.4616 40.1766 31.4616 40.1766C31.4616 40.1766 32.5241 39.7391 33.4616 39.7391C32.2741 39.4266 30.7741 39.7391 30.0866 40.4266C29.5866 40.8849 29.4755 42.121 29.3644 43.3572C29.3088 43.9752 29.2533 44.5933 29.1491 45.1141C28.8693 46.5693 27.988 47.3729 26.6398 48.6022C26.4825 48.7457 26.3189 48.8949 26.1491 49.0516C25.2741 49.8641 24.6491 50.1141 24.1491 50.1141C23.0866 49.9266 21.8366 49.6141 20.9616 49.3016C20.3366 48.4891 19.3991 45.8016 19.1491 44.6766C19.284 44.2269 19.7104 43.4208 20.0785 42.7249C20.2219 42.4538 20.3565 42.1994 20.4616 41.9891L20.5658 41.7895C21.2522 40.475 21.655 39.7037 21.7741 38.9891C22.0241 37.9266 22.8366 31.3641 23.1491 28.6141C23.9616 29.6766 25.0866 31.4266 24.8366 32.5516C26.6491 29.9891 25.3366 27.4891 24.7116 26.4891C24.1491 25.4891 23.3991 23.4891 24.0241 21.3641C24.6491 19.2391 26.8991 13.3641 26.8991 13.3641C26.8991 13.3641 27.6491 14.6766 28.7116 14.4266C29.7741 14.1766 38.3366 1.30161 38.3366 1.30161C38.3366 1.30161 40.6491 6.36411 38.2116 10.0516C35.7116 13.7391 33.2741 14.4266 33.2741 14.4266C33.2741 14.4266 36.7116 15.0516 39.8991 12.7391C41.2116 15.8016 42.4616 18.9891 42.5241 19.4266C42.4933 19.4984 42.4002 19.7202 42.265 20.0423L42.2527 20.0717C41.5554 21.7325 39.7943 25.9275 39.5866 26.2391C39.4616 26.3641 38.5866 26.6141 37.9616 26.7391C36.8991 27.0516 36.2741 27.2391 36.0241 27.4266C35.5866 27.8016 33.5866 33.3016 32.6491 35.9891C31.5241 36.3016 30.3991 36.9266 29.5866 38.1766C30.0241 37.8641 31.3991 37.6766 32.3991 37.5516C33.2741 37.4891 35.9616 38.9266 36.6491 41.6141V41.7391C36.7741 42.7391 36.4616 43.6766 35.9616 44.4266ZM30.0866 45.1766C30.5293 44.5372 30.5849 43.5494 30.6189 42.9444C30.6282 42.7806 30.6358 42.6448 30.6491 42.5516C30.7116 42.1141 30.8366 41.3016 31.3366 41.1766C31.8366 41.0516 33.0241 41.2391 33.0241 42.1141C33.0241 42.6736 32.6092 42.9367 32.1467 43.23C31.9376 43.3626 31.7187 43.5014 31.5241 43.6766C31.2392 43.9615 30.7681 44.4592 30.4401 44.8057C30.265 44.9906 30.1301 45.1331 30.0866 45.1766ZM55.0241 33.2391C55.6491 30.0516 55.7116 27.3016 55.5241 25.0516C57.9616 28.3016 59.4616 32.2391 59.8991 36.3016C59.9616 36.8016 60.4616 37.3016 60.9616 37.8016C61.3991 38.1766 61.8991 38.6766 61.8991 38.9891C61.8991 40.4266 61.7741 41.8641 61.5241 43.3016C61.4649 43.4793 60.9563 43.7694 60.5309 44.0121L60.4616 44.0516C59.8366 44.3641 59.2741 44.6766 59.1491 45.1766C57.7741 49.9891 54.8366 54.2391 50.8991 57.2391C56.7116 51.1766 59.5241 41.1766 55.0241 33.2391ZM22.8992 17.3015C23.3367 16.489 22.9617 15.9265 22.5867 15.614L22.4617 15.489C21.7117 15.114 17.0242 13.364 12.3992 11.739C16.4617 14.4265 20.9617 17.0515 21.7117 17.4265C22.2742 17.6765 22.6492 17.739 22.8992 17.3015Z" fill="#152943"/>
        <path d="M29.0242 26.4893L32.2742 20.9268C32.2742 20.9268 34.1492 21.8643 33.2117 23.3643C32.0242 25.1143 29.0242 26.4893 29.0242 26.4893Z" fill="#FFD923"/>
        <path d="M50.2803 5.73245C51.771 6.77176 53.169 7.9347 54.4596 9.20643C48.4062 7.06725 43.3308 7.31803 42.9615 7.36419H42.8365C43.149 7.23919 43.4615 7.17669 43.774 7.11419C45.6001 6.52513 47.9258 6.04711 50.2803 5.73245Z" fill="#D82122"/>
        <path d="M29.5318 0.0942383C26.5584 3.91311 27.3365 9.48926 27.3365 9.48926C24.379 4.9842 25.9061 2.03079 27.9509 0.254194C28.474 0.188141 29.0011 0.134718 29.5318 0.0942383Z" fill="#D82122"/>
        <path d="M37.0721 0.4002C37.3535 0.445011 37.6337 0.493491 37.9126 0.545588C36.8469 1.86743 35.7972 3.29241 35.0606 4.29232L34.9615 4.42685C32.5865 6.05185 31.5865 7.61435 31.5865 7.61435C32.4754 4.58378 34.4616 2.04957 37.0721 0.4002Z" fill="#D82122"/>
        <path d="M38.952 0.757738C39.8219 0.950437 40.6784 1.17854 41.5201 1.44045C40.7923 1.64402 40.1079 1.87076 39.4615 2.11435C39.3833 1.80165 39.1829 1.29339 38.952 0.757738Z" fill="#D82122"/>
        <path d="M24.649 13.3644C17.5393 13.1213 19.6463 5.07947 19.8835 4.17406C19.8903 4.14824 19.8955 4.12822 19.899 4.11435C19.899 4.17685 20.399 10.8019 24.649 13.3644Z" fill="#D82122"/>
    </g>
    <defs>
        <clipPath id="clip0_740_257">
            <rect width="64" height="64" fill="white"/>
        </clipPath>
    </defs>
</svg>
