<svg width="24" height="24" viewBox="0 0 60 60" fill="none" xmlns="http://www.w3.org/2000/svg">
    <circle cx="30" cy="30" r="30" fill="#D9ECFF"/>
    <path d="M22.9994 36.8906H24.8305L26.4418 41.6514C26.4776 41.7555 26.5069 41.8597 26.5297 41.9639C26.5525 42.0648 26.5753 42.1722 26.598 42.2861H26.642C26.6615 42.1722 26.6843 42.0632 26.7104 41.959C26.7364 41.8548 26.7657 41.7523 26.7982 41.6514L28.434 36.8906H29.9477L27.4184 44.0146H25.5385L22.9994 36.8906Z" fill="#278FFC"/>
    <path d="M30.7623 44V43.0137L33.4527 40.2451C33.7197 39.9652 33.9182 39.708 34.0484 39.4736C34.1786 39.236 34.2437 38.9951 34.2437 38.751C34.2437 38.5036 34.1705 38.3115 34.024 38.1748C33.8808 38.0348 33.6773 37.9648 33.4137 37.9648C33.1435 37.9616 32.927 38.0527 32.7643 38.2383C32.6048 38.4238 32.5136 38.7087 32.4908 39.0928V39.1953H30.7477V39.0781C30.7477 38.3717 30.9934 37.807 31.485 37.3838C31.9798 36.9574 32.6243 36.7441 33.4186 36.7441C34.2519 36.7441 34.8883 36.9264 35.3277 37.291C35.7704 37.6556 35.9918 38.1243 35.9918 38.6973C35.9918 39.1432 35.8795 39.5452 35.6549 39.9033C35.4335 40.2581 35.1308 40.6292 34.7467 41.0166L33.0523 42.7305H36.148V44H30.7623Z" fill="#278FFC"/>
    <path d="M24.3271 21.8928C25.4349 20.839 27.4221 19.3342 30 19.3342C32.5779 19.3342 34.5651 20.839 35.6729 21.8928C35.8379 22.0498 36.0937 22.05 36.2538 21.8877L37.9927 20.1256C38.157 19.9591 38.1585 19.6864 37.9901 19.5243C36.6651 18.2482 33.8712 16 30 16C26.1288 16 23.3349 18.2482 22.0099 19.5243C21.8415 19.6864 21.843 19.9591 22.0073 20.1256L23.7462 21.8877C23.9064 22.05 24.1621 22.0498 24.3271 21.8928Z" fill="#278FFC"/>
    <path d="M17.1107 24.6924C16.9536 24.8661 16.9651 25.1391 17.1363 25.298L24.2334 31.8909C24.3889 32.0354 24.6247 32.0365 24.7815 31.8935L29.7273 27.3826C29.8831 27.2406 30.1169 27.2406 30.2727 27.3826L35.2185 31.8935C35.3753 32.0365 35.6111 32.0354 35.7666 31.8909L42.8637 25.298C43.0349 25.1391 43.0464 24.8661 42.8893 24.6924L41.228 22.8559C41.0748 22.6865 40.8184 22.675 40.6516 22.83L35.7463 27.3867C35.5908 27.5312 35.355 27.5323 35.1982 27.3893L30.2727 22.897C30.1169 22.7549 29.8831 22.7549 29.7273 22.897L24.8018 27.3893C24.645 27.5323 24.4092 27.5312 24.2537 27.3867L19.3484 22.83C19.1816 22.675 18.9252 22.6865 18.772 22.8559L17.1107 24.6924Z" fill="#278FFC"/>
</svg>
