<svg width="64" height="64" viewBox="0 0 64 64" fill="none" xmlns="http://www.w3.org/2000/svg">
    <circle cx="32" cy="32" r="32" fill="#EADAFF"/>
    <path fill-rule="evenodd" clip-rule="evenodd" d="M20 14C16.6863 14 14 16.6863 14 20V24V42C14 46.4183 17.5817 50 22 50H42C46.4183 50 50 46.4183 50 42V30C50 25.5817 46.4183 22 42 22V20C42 16.6863 39.3137 14 36 14H20ZM38 22V20C38 18.8954 37.1046 18 36 18H20C18.8954 18 18 18.8954 18 20V22H38ZM18 26V42C18 44.2091 19.7909 46 22 46H42C44.2091 46 46 44.2091 46 42V30C46 27.7909 44.2091 26 42 26H40H18Z" fill="#9361DA"/>
    <path fill-rule="evenodd" clip-rule="evenodd" d="M21.5897 34.6456C23.5865 30.6904 27.4972 28 32.0001 28C36.5029 28 40.4137 30.6904 42.4104 34.6456C42.8402 35.4969 42.8402 36.5031 42.4104 37.3544C40.4137 41.3096 36.5029 44 32.0001 44C27.4972 44 23.5865 41.3096 21.5897 37.3544C21.1599 36.5031 21.1599 35.4969 21.5897 34.6456ZM32.0001 41C34.7615 41 37.0001 38.7614 37.0001 36C37.0001 33.2386 34.7615 31 32.0001 31C29.2386 31 27.0001 33.2386 27.0001 36C27.0001 38.7614 29.2386 41 32.0001 41Z" fill="#9361DA"/>
    <circle cx="32" cy="36" r="2" fill="#9361DA"/>
</svg>
