<svg width="24" height="24" viewBox="0 0 60 60" fill="none" xmlns="http://www.w3.org/2000/svg">
    <circle cx="30" cy="30" r="30" fill="#FFEEFF"/>
    <g clip-path="url(#clip0)">
        <path fill-rule="evenodd" clip-rule="evenodd"
              d="M30.1074 13.8438L20.1709 30.2085L29.8027 35.8745L30.1074 36.0532L40.043 30.2085L30.1074 13.8438ZM29.5068 34.3081L22.3135 30.0762L29.5068 26.9028V34.3081ZM22.5029 28.6812L29.5068 25.5908V17.1445L22.5029 28.6812ZM30.707 25.5908V17.1445L37.7119 28.6812L30.707 25.5908ZM30.707 26.9028L37.9014 30.0762L30.707 34.3081V26.9028Z"
              fill="url(#paint0_linear)"/>
        <path fill-rule="evenodd" clip-rule="evenodd"
              d="M21.3047 31.6255L20.5107 32.4897L30.1074 46.0381L39.7041 32.4897L38.9102 31.6255L30.1074 36.8037L21.3047 31.6255ZM23.1055 34.0776L29.5068 37.8433V43.1147L23.1055 34.0776ZM30.707 37.8433V43.1147L37.1084 34.0776L30.707 37.8433Z"
              fill="url(#paint1_linear)"/>
    </g>
    <defs>
        <linearGradient id="paint0_linear" x1="20" y1="14" x2="40" y2="46" gradientUnits="userSpaceOnUse">
            <stop stop-color="#FFDC81"/>
            <stop offset="1" stop-color="#FF67E7"/>
        </linearGradient>
        <linearGradient id="paint1_linear" x1="20" y1="14" x2="40" y2="46" gradientUnits="userSpaceOnUse">
            <stop stop-color="#FFDC81"/>
            <stop offset="1" stop-color="#FF67E7"/>
        </linearGradient>
        <clipPath id="clip0">
            <rect width="32" height="32" fill="white" transform="translate(14 14)"/>
        </clipPath>
    </defs>
</svg>
