<svg width="24" height="24" viewBox="0 0 24 24" fill="none" xmlns="http://www.w3.org/2000/svg">
  <g clip-path="url(#clip0_402_26013)">
    <rect width="24" height="24" fill="#0E131D"/>
    <rect width="24" height="24" fill="url(#paint0_radial_402_26013)"/>
    <mask id="path-3-outside-1_402_26013" maskUnits="userSpaceOnUse" x="1.0918" y="-3.69043" width="30" height="31" fill="black">
      <rect fill="white" x="1.0918" y="-3.69043" width="30" height="31"/>
      <path d="M14.8024 3.60526C15.3415 2.97245 15.1306 2.03495 15.1306 2.03495L13.5602 4.35526C13.5368 4.35526 14.1227 4.3787 14.8024 3.60526Z"/>
      <path d="M9.52899 16.285L9.71649 15.3475C9.71649 15.3475 8.94305 16.7069 8.87274 16.8944C8.80242 17.1053 8.91961 17.4803 9.2243 17.4569C9.52899 17.4334 9.90399 16.9881 9.90399 16.66C9.90399 16.2381 9.52899 16.285 9.52899 16.285Z"/>
      <path d="M23.4508 1.37872C23.4508 1.37872 24.6227 1.4256 25.8415 1.56622C23.0993 -0.590028 20.4977 -1.22284 18.3884 -1.22284C15.4821 -1.22284 13.5134 -0.0275271 13.3962 0.0427854L14.3102 -1.41034C14.3102 -1.41034 11.193 -4.664 9.90399 -0.796808C9.57586 -1.61712 8.73211 0.0896604 8.73211 0.0896604C8.73211 0.0896604 6.83367 1.75372 7.72429 4.51935C5.54461 3.72247 2.42742 2.62091 2.31023 2.59747C2.14617 2.57403 2.0993 2.64435 2.0993 2.64435C2.0993 2.64435 2.05242 2.71466 2.19305 2.83185C2.45086 3.04278 7.37273 6.6756 8.45086 7.37872C8.21648 8.22247 8.21648 8.62091 8.45086 9.01935C8.77898 9.55841 8.80242 9.83966 8.75554 10.2381C8.70867 10.6365 8.28679 14.0818 8.19304 14.5037C8.09929 14.9256 7.11492 16.4256 7.16179 16.8709C7.20867 17.3162 7.81804 19.2147 8.35711 19.4256C8.75554 19.5662 9.73992 19.8709 10.3962 19.8709C10.6305 19.8709 10.8415 19.824 10.9352 19.7303C11.3337 19.3787 11.4509 19.3084 11.7321 19.3084C11.7555 19.3084 11.779 19.3084 11.8024 19.3084C11.9196 19.3084 12.0602 19.3318 12.2243 19.3318C12.5993 19.3318 13.0915 19.2615 13.443 18.9334C13.9587 18.4178 14.8493 17.7147 15.1305 17.3865C15.4821 16.9412 15.6696 16.3318 15.5759 15.7225C15.5055 15.16 15.8102 14.6678 16.1618 14.1756C16.6071 13.5897 17.4274 12.535 17.4274 12.535C19.0446 13.7537 20.0524 15.6053 20.0524 17.6678C20.0524 21.324 16.8649 24.5584 12.9274 24.5584C12.318 24.5584 12.318 26.6485 11.7321 26.5079C13.5368 27.1407 14.4743 24.91 15.7165 24.91C18.3649 24.91 18.9152 24.2772 18.9152 24.2772C18.9152 24.2772 19.279 24.5818 18.4821 25.3084C18.5055 25.3084 18.5055 25.3084 18.5055 25.3084C22.8883 24.699 25.0212 21.0897 25.0212 21.0897C25.0212 21.0897 24.8571 22.2615 24.6462 23.0584C30.4821 18.6756 29.4977 13.1912 29.4743 13.0037C29.5212 13.074 30.1071 13.7772 30.4118 14.1522C31.3493 4.49591 23.4508 1.37872 23.4508 1.37872ZM14.4743 16.8006C14.3805 16.9178 13.9821 17.2693 13.7009 17.5272C13.4196 17.785 13.1149 18.0428 12.8805 18.2772C12.7868 18.3709 12.5993 18.4178 12.318 18.4178C12.2243 18.4178 12.1305 18.4178 12.0602 18.4178C12.0134 18.4178 11.9665 18.4178 11.9196 18.4178C11.8727 18.4178 11.8493 18.4178 11.8259 18.4178C11.7555 18.4178 11.6852 18.4178 11.6149 18.4178C11.9665 17.949 12.9977 16.8709 13.3493 16.6365C13.7712 16.3553 13.9821 16.074 13.7243 15.5818C13.4665 15.0897 12.7868 15.2068 12.7868 15.2068C12.7868 15.2068 13.1852 15.0428 13.5368 15.0428C13.0915 14.9256 12.529 15.0428 12.2712 15.3006C11.9899 15.5584 12.0368 16.4725 11.9196 17.0584C11.8024 17.6678 11.404 17.9725 10.7946 18.535C10.4665 18.8397 10.2321 18.9334 10.0446 18.9334C9.64617 18.8631 9.17742 18.7459 8.84929 18.6287C8.61492 18.324 8.26336 17.3162 8.16961 16.8943C8.23992 16.66 8.52117 16.1678 8.66179 15.8865C8.94304 15.3475 9.10711 15.0428 9.15398 14.7615C9.24773 14.3631 9.55242 11.9022 9.66961 10.8709C9.97429 11.2693 10.3962 11.9256 10.3024 12.3475C10.9821 11.3865 10.4899 10.449 10.2555 10.074C10.0446 9.69904 9.76336 8.94903 9.99773 8.15216C10.2321 7.35528 11.0759 5.15216 11.0759 5.15216C11.0759 5.15216 11.3571 5.64435 11.7555 5.5506C12.154 5.45685 15.3649 0.628722 15.3649 0.628722C15.3649 0.628722 16.2321 2.52716 15.318 3.90997C14.3805 5.29279 13.4665 5.5506 13.4665 5.5506C13.4665 5.5506 14.7555 5.78497 15.9509 4.91779C16.443 6.06622 16.9118 7.26154 16.9352 7.4256C16.8649 7.58966 15.9274 9.83966 15.8337 9.98029C15.7868 10.0272 15.4587 10.1209 15.2243 10.1678C14.8259 10.285 14.5915 10.3553 14.4977 10.4256C14.3337 10.5662 13.5837 12.6287 13.2321 13.6365C12.8102 13.7537 12.3884 13.9881 12.0837 14.4568C12.2477 14.3397 12.7634 14.2693 13.1384 14.2225C13.4665 14.199 14.4743 14.7381 14.7321 15.7459C14.7321 15.7693 14.7321 15.7693 14.7321 15.7928C14.779 16.1678 14.6618 16.5193 14.4743 16.8006ZM12.2712 17.0818C12.4821 16.7772 12.4587 16.2615 12.4821 16.0975C12.5055 15.9334 12.5524 15.6287 12.7399 15.5818C12.9274 15.535 13.3727 15.6053 13.3727 15.9334C13.3727 16.2381 13.0446 16.3084 12.8102 16.5193C12.6462 16.6834 12.318 17.035 12.2712 17.0818ZM21.6227 12.6053C21.8571 11.41 21.8805 10.3787 21.8102 9.53498C22.7243 10.7537 23.2868 12.2303 23.4508 13.7537C23.4743 13.9412 23.6618 14.1287 23.8493 14.3162C24.0134 14.4568 24.2009 14.6443 24.2009 14.7615C24.2009 15.3006 24.154 15.8397 24.0602 16.3787C24.0368 16.449 23.8258 16.5662 23.6618 16.66C23.4274 16.7772 23.2165 16.8943 23.1696 17.0818C22.654 18.8865 21.5524 20.4803 20.0759 21.6053C22.2555 19.3318 23.3102 15.5818 21.6227 12.6053ZM20.1462 21.8162C21.6696 20.6443 22.8415 19.0037 23.3571 17.1522C23.3805 17.0818 23.5915 16.9647 23.7321 16.8709C23.9665 16.7537 24.2008 16.6131 24.2477 16.4256C24.3415 15.8865 24.3883 15.324 24.3883 14.7615C24.3883 14.5506 24.1774 14.3397 23.9665 14.1287C23.8493 13.9881 23.6618 13.824 23.6618 13.7068C23.4743 11.9959 22.7946 10.3787 21.7399 9.04278C21.2712 6.23028 19.3962 5.3631 19.3493 5.33966C19.3962 5.40997 20.6149 7.16779 19.7712 9.23029C18.904 11.3162 16.6774 10.9881 16.4899 11.0115C16.3024 11.0115 15.5759 11.949 14.6618 13.6834C14.5446 13.6365 14.0524 13.5193 13.4899 13.6131C13.9118 12.4412 14.5446 10.7772 14.6618 10.6365C14.7087 10.5897 15.0602 10.4959 15.2946 10.4256C15.7399 10.3084 15.9509 10.2381 16.0212 10.1444C16.068 10.074 16.3024 9.53497 16.5368 8.97247C16.7477 8.97247 17.2868 8.9256 17.3337 8.90216C17.3805 8.85529 17.8259 7.70685 17.8259 7.56622C17.8259 7.44903 16.9118 5.1756 16.5602 4.30841C16.7243 4.12091 16.8884 3.88653 17.0524 3.62872C21.8571 4.14435 25.6071 8.22247 25.6071 13.1678C25.6071 16.9647 23.3805 20.2693 20.1462 21.8162Z"/>
      <path d="M13.9118 9.15996C14.3571 8.64434 14.1227 7.6834 13.3024 7.51934C13.5134 7.02715 13.818 6.04278 13.818 6.04278C13.818 6.04278 11.4274 9.79278 11.2165 9.86309C11.0055 9.9334 10.7946 9.11309 10.7946 9.11309C10.3493 10.824 11.5446 11.0584 11.6852 10.5193C12.3415 10.3553 13.4665 9.65215 13.9118 9.15996Z"/>
    </mask>
    <path d="M14.8024 3.60526C15.3415 2.97245 15.1306 2.03495 15.1306 2.03495L13.5602 4.35526C13.5368 4.35526 14.1227 4.3787 14.8024 3.60526Z" fill="url(#paint1_linear_402_26013)"/>
    <path d="M9.52899 16.285L9.71649 15.3475C9.71649 15.3475 8.94305 16.7069 8.87274 16.8944C8.80242 17.1053 8.91961 17.4803 9.2243 17.4569C9.52899 17.4334 9.90399 16.9881 9.90399 16.66C9.90399 16.2381 9.52899 16.285 9.52899 16.285Z" fill="url(#paint2_linear_402_26013)"/>
    <path d="M23.4508 1.37872C23.4508 1.37872 24.6227 1.4256 25.8415 1.56622C23.0993 -0.590028 20.4977 -1.22284 18.3884 -1.22284C15.4821 -1.22284 13.5134 -0.0275271 13.3962 0.0427854L14.3102 -1.41034C14.3102 -1.41034 11.193 -4.664 9.90399 -0.796808C9.57586 -1.61712 8.73211 0.0896604 8.73211 0.0896604C8.73211 0.0896604 6.83367 1.75372 7.72429 4.51935C5.54461 3.72247 2.42742 2.62091 2.31023 2.59747C2.14617 2.57403 2.0993 2.64435 2.0993 2.64435C2.0993 2.64435 2.05242 2.71466 2.19305 2.83185C2.45086 3.04278 7.37273 6.6756 8.45086 7.37872C8.21648 8.22247 8.21648 8.62091 8.45086 9.01935C8.77898 9.55841 8.80242 9.83966 8.75554 10.2381C8.70867 10.6365 8.28679 14.0818 8.19304 14.5037C8.09929 14.9256 7.11492 16.4256 7.16179 16.8709C7.20867 17.3162 7.81804 19.2147 8.35711 19.4256C8.75554 19.5662 9.73992 19.8709 10.3962 19.8709C10.6305 19.8709 10.8415 19.824 10.9352 19.7303C11.3337 19.3787 11.4509 19.3084 11.7321 19.3084C11.7555 19.3084 11.779 19.3084 11.8024 19.3084C11.9196 19.3084 12.0602 19.3318 12.2243 19.3318C12.5993 19.3318 13.0915 19.2615 13.443 18.9334C13.9587 18.4178 14.8493 17.7147 15.1305 17.3865C15.4821 16.9412 15.6696 16.3318 15.5759 15.7225C15.5055 15.16 15.8102 14.6678 16.1618 14.1756C16.6071 13.5897 17.4274 12.535 17.4274 12.535C19.0446 13.7537 20.0524 15.6053 20.0524 17.6678C20.0524 21.324 16.8649 24.5584 12.9274 24.5584C12.318 24.5584 12.318 26.6485 11.7321 26.5079C13.5368 27.1407 14.4743 24.91 15.7165 24.91C18.3649 24.91 18.9152 24.2772 18.9152 24.2772C18.9152 24.2772 19.279 24.5818 18.4821 25.3084C18.5055 25.3084 18.5055 25.3084 18.5055 25.3084C22.8883 24.699 25.0212 21.0897 25.0212 21.0897C25.0212 21.0897 24.8571 22.2615 24.6462 23.0584C30.4821 18.6756 29.4977 13.1912 29.4743 13.0037C29.5212 13.074 30.1071 13.7772 30.4118 14.1522C31.3493 4.49591 23.4508 1.37872 23.4508 1.37872ZM14.4743 16.8006C14.3805 16.9178 13.9821 17.2693 13.7009 17.5272C13.4196 17.785 13.1149 18.0428 12.8805 18.2772C12.7868 18.3709 12.5993 18.4178 12.318 18.4178C12.2243 18.4178 12.1305 18.4178 12.0602 18.4178C12.0134 18.4178 11.9665 18.4178 11.9196 18.4178C11.8727 18.4178 11.8493 18.4178 11.8259 18.4178C11.7555 18.4178 11.6852 18.4178 11.6149 18.4178C11.9665 17.949 12.9977 16.8709 13.3493 16.6365C13.7712 16.3553 13.9821 16.074 13.7243 15.5818C13.4665 15.0897 12.7868 15.2068 12.7868 15.2068C12.7868 15.2068 13.1852 15.0428 13.5368 15.0428C13.0915 14.9256 12.529 15.0428 12.2712 15.3006C11.9899 15.5584 12.0368 16.4725 11.9196 17.0584C11.8024 17.6678 11.404 17.9725 10.7946 18.535C10.4665 18.8397 10.2321 18.9334 10.0446 18.9334C9.64617 18.8631 9.17742 18.7459 8.84929 18.6287C8.61492 18.324 8.26336 17.3162 8.16961 16.8943C8.23992 16.66 8.52117 16.1678 8.66179 15.8865C8.94304 15.3475 9.10711 15.0428 9.15398 14.7615C9.24773 14.3631 9.55242 11.9022 9.66961 10.8709C9.97429 11.2693 10.3962 11.9256 10.3024 12.3475C10.9821 11.3865 10.4899 10.449 10.2555 10.074C10.0446 9.69904 9.76336 8.94903 9.99773 8.15216C10.2321 7.35528 11.0759 5.15216 11.0759 5.15216C11.0759 5.15216 11.3571 5.64435 11.7555 5.5506C12.154 5.45685 15.3649 0.628722 15.3649 0.628722C15.3649 0.628722 16.2321 2.52716 15.318 3.90997C14.3805 5.29279 13.4665 5.5506 13.4665 5.5506C13.4665 5.5506 14.7555 5.78497 15.9509 4.91779C16.443 6.06622 16.9118 7.26154 16.9352 7.4256C16.8649 7.58966 15.9274 9.83966 15.8337 9.98029C15.7868 10.0272 15.4587 10.1209 15.2243 10.1678C14.8259 10.285 14.5915 10.3553 14.4977 10.4256C14.3337 10.5662 13.5837 12.6287 13.2321 13.6365C12.8102 13.7537 12.3884 13.9881 12.0837 14.4568C12.2477 14.3397 12.7634 14.2693 13.1384 14.2225C13.4665 14.199 14.4743 14.7381 14.7321 15.7459C14.7321 15.7693 14.7321 15.7693 14.7321 15.7928C14.779 16.1678 14.6618 16.5193 14.4743 16.8006ZM12.2712 17.0818C12.4821 16.7772 12.4587 16.2615 12.4821 16.0975C12.5055 15.9334 12.5524 15.6287 12.7399 15.5818C12.9274 15.535 13.3727 15.6053 13.3727 15.9334C13.3727 16.2381 13.0446 16.3084 12.8102 16.5193C12.6462 16.6834 12.318 17.035 12.2712 17.0818ZM21.6227 12.6053C21.8571 11.41 21.8805 10.3787 21.8102 9.53498C22.7243 10.7537 23.2868 12.2303 23.4508 13.7537C23.4743 13.9412 23.6618 14.1287 23.8493 14.3162C24.0134 14.4568 24.2009 14.6443 24.2009 14.7615C24.2009 15.3006 24.154 15.8397 24.0602 16.3787C24.0368 16.449 23.8258 16.5662 23.6618 16.66C23.4274 16.7772 23.2165 16.8943 23.1696 17.0818C22.654 18.8865 21.5524 20.4803 20.0759 21.6053C22.2555 19.3318 23.3102 15.5818 21.6227 12.6053ZM20.1462 21.8162C21.6696 20.6443 22.8415 19.0037 23.3571 17.1522C23.3805 17.0818 23.5915 16.9647 23.7321 16.8709C23.9665 16.7537 24.2008 16.6131 24.2477 16.4256C24.3415 15.8865 24.3883 15.324 24.3883 14.7615C24.3883 14.5506 24.1774 14.3397 23.9665 14.1287C23.8493 13.9881 23.6618 13.824 23.6618 13.7068C23.4743 11.9959 22.7946 10.3787 21.7399 9.04278C21.2712 6.23028 19.3962 5.3631 19.3493 5.33966C19.3962 5.40997 20.6149 7.16779 19.7712 9.23029C18.904 11.3162 16.6774 10.9881 16.4899 11.0115C16.3024 11.0115 15.5759 11.949 14.6618 13.6834C14.5446 13.6365 14.0524 13.5193 13.4899 13.6131C13.9118 12.4412 14.5446 10.7772 14.6618 10.6365C14.7087 10.5897 15.0602 10.4959 15.2946 10.4256C15.7399 10.3084 15.9509 10.2381 16.0212 10.1444C16.068 10.074 16.3024 9.53497 16.5368 8.97247C16.7477 8.97247 17.2868 8.9256 17.3337 8.90216C17.3805 8.85529 17.8259 7.70685 17.8259 7.56622C17.8259 7.44903 16.9118 5.1756 16.5602 4.30841C16.7243 4.12091 16.8884 3.88653 17.0524 3.62872C21.8571 4.14435 25.6071 8.22247 25.6071 13.1678C25.6071 16.9647 23.3805 20.2693 20.1462 21.8162Z" fill="url(#paint3_linear_402_26013)"/>
    <path d="M13.9118 9.15996C14.3571 8.64434 14.1227 7.6834 13.3024 7.51934C13.5134 7.02715 13.818 6.04278 13.818 6.04278C13.818 6.04278 11.4274 9.79278 11.2165 9.86309C11.0055 9.9334 10.7946 9.11309 10.7946 9.11309C10.3493 10.824 11.5446 11.0584 11.6852 10.5193C12.3415 10.3553 13.4665 9.65215 13.9118 9.15996Z" fill="url(#paint4_linear_402_26013)"/>
    <path d="M14.8024 3.60526C15.3415 2.97245 15.1306 2.03495 15.1306 2.03495L13.5602 4.35526C13.5368 4.35526 14.1227 4.3787 14.8024 3.60526Z" stroke="url(#paint5_linear_402_26013)" stroke-width="1.125" stroke-linejoin="round" mask="url(#path-3-outside-1_402_26013)"/>
    <path d="M9.52899 16.285L9.71649 15.3475C9.71649 15.3475 8.94305 16.7069 8.87274 16.8944C8.80242 17.1053 8.91961 17.4803 9.2243 17.4569C9.52899 17.4334 9.90399 16.9881 9.90399 16.66C9.90399 16.2381 9.52899 16.285 9.52899 16.285Z" stroke="url(#paint6_linear_402_26013)" stroke-width="1.125" stroke-linejoin="round" mask="url(#path-3-outside-1_402_26013)"/>
    <path d="M23.4508 1.37872C23.4508 1.37872 24.6227 1.4256 25.8415 1.56622C23.0993 -0.590028 20.4977 -1.22284 18.3884 -1.22284C15.4821 -1.22284 13.5134 -0.0275271 13.3962 0.0427854L14.3102 -1.41034C14.3102 -1.41034 11.193 -4.664 9.90399 -0.796808C9.57586 -1.61712 8.73211 0.0896604 8.73211 0.0896604C8.73211 0.0896604 6.83367 1.75372 7.72429 4.51935C5.54461 3.72247 2.42742 2.62091 2.31023 2.59747C2.14617 2.57403 2.0993 2.64435 2.0993 2.64435C2.0993 2.64435 2.05242 2.71466 2.19305 2.83185C2.45086 3.04278 7.37273 6.6756 8.45086 7.37872C8.21648 8.22247 8.21648 8.62091 8.45086 9.01935C8.77898 9.55841 8.80242 9.83966 8.75554 10.2381C8.70867 10.6365 8.28679 14.0818 8.19304 14.5037C8.09929 14.9256 7.11492 16.4256 7.16179 16.8709C7.20867 17.3162 7.81804 19.2147 8.35711 19.4256C8.75554 19.5662 9.73992 19.8709 10.3962 19.8709C10.6305 19.8709 10.8415 19.824 10.9352 19.7303C11.3337 19.3787 11.4509 19.3084 11.7321 19.3084C11.7555 19.3084 11.779 19.3084 11.8024 19.3084C11.9196 19.3084 12.0602 19.3318 12.2243 19.3318C12.5993 19.3318 13.0915 19.2615 13.443 18.9334C13.9587 18.4178 14.8493 17.7147 15.1305 17.3865C15.4821 16.9412 15.6696 16.3318 15.5759 15.7225C15.5055 15.16 15.8102 14.6678 16.1618 14.1756C16.6071 13.5897 17.4274 12.535 17.4274 12.535C19.0446 13.7537 20.0524 15.6053 20.0524 17.6678C20.0524 21.324 16.8649 24.5584 12.9274 24.5584C12.318 24.5584 12.318 26.6485 11.7321 26.5079C13.5368 27.1407 14.4743 24.91 15.7165 24.91C18.3649 24.91 18.9152 24.2772 18.9152 24.2772C18.9152 24.2772 19.279 24.5818 18.4821 25.3084C18.5055 25.3084 18.5055 25.3084 18.5055 25.3084C22.8883 24.699 25.0212 21.0897 25.0212 21.0897C25.0212 21.0897 24.8571 22.2615 24.6462 23.0584C30.4821 18.6756 29.4977 13.1912 29.4743 13.0037C29.5212 13.074 30.1071 13.7772 30.4118 14.1522C31.3493 4.49591 23.4508 1.37872 23.4508 1.37872ZM14.4743 16.8006C14.3805 16.9178 13.9821 17.2693 13.7009 17.5272C13.4196 17.785 13.1149 18.0428 12.8805 18.2772C12.7868 18.3709 12.5993 18.4178 12.318 18.4178C12.2243 18.4178 12.1305 18.4178 12.0602 18.4178C12.0134 18.4178 11.9665 18.4178 11.9196 18.4178C11.8727 18.4178 11.8493 18.4178 11.8259 18.4178C11.7555 18.4178 11.6852 18.4178 11.6149 18.4178C11.9665 17.949 12.9977 16.8709 13.3493 16.6365C13.7712 16.3553 13.9821 16.074 13.7243 15.5818C13.4665 15.0897 12.7868 15.2068 12.7868 15.2068C12.7868 15.2068 13.1852 15.0428 13.5368 15.0428C13.0915 14.9256 12.529 15.0428 12.2712 15.3006C11.9899 15.5584 12.0368 16.4725 11.9196 17.0584C11.8024 17.6678 11.404 17.9725 10.7946 18.535C10.4665 18.8397 10.2321 18.9334 10.0446 18.9334C9.64617 18.8631 9.17742 18.7459 8.84929 18.6287C8.61492 18.324 8.26336 17.3162 8.16961 16.8943C8.23992 16.66 8.52117 16.1678 8.66179 15.8865C8.94304 15.3475 9.10711 15.0428 9.15398 14.7615C9.24773 14.3631 9.55242 11.9022 9.66961 10.8709C9.97429 11.2693 10.3962 11.9256 10.3024 12.3475C10.9821 11.3865 10.4899 10.449 10.2555 10.074C10.0446 9.69904 9.76336 8.94903 9.99773 8.15216C10.2321 7.35528 11.0759 5.15216 11.0759 5.15216C11.0759 5.15216 11.3571 5.64435 11.7555 5.5506C12.154 5.45685 15.3649 0.628722 15.3649 0.628722C15.3649 0.628722 16.2321 2.52716 15.318 3.90997C14.3805 5.29279 13.4665 5.5506 13.4665 5.5506C13.4665 5.5506 14.7555 5.78497 15.9509 4.91779C16.443 6.06622 16.9118 7.26154 16.9352 7.4256C16.8649 7.58966 15.9274 9.83966 15.8337 9.98029C15.7868 10.0272 15.4587 10.1209 15.2243 10.1678C14.8259 10.285 14.5915 10.3553 14.4977 10.4256C14.3337 10.5662 13.5837 12.6287 13.2321 13.6365C12.8102 13.7537 12.3884 13.9881 12.0837 14.4568C12.2477 14.3397 12.7634 14.2693 13.1384 14.2225C13.4665 14.199 14.4743 14.7381 14.7321 15.7459C14.7321 15.7693 14.7321 15.7693 14.7321 15.7928C14.779 16.1678 14.6618 16.5193 14.4743 16.8006ZM12.2712 17.0818C12.4821 16.7772 12.4587 16.2615 12.4821 16.0975C12.5055 15.9334 12.5524 15.6287 12.7399 15.5818C12.9274 15.535 13.3727 15.6053 13.3727 15.9334C13.3727 16.2381 13.0446 16.3084 12.8102 16.5193C12.6462 16.6834 12.318 17.035 12.2712 17.0818ZM21.6227 12.6053C21.8571 11.41 21.8805 10.3787 21.8102 9.53498C22.7243 10.7537 23.2868 12.2303 23.4508 13.7537C23.4743 13.9412 23.6618 14.1287 23.8493 14.3162C24.0134 14.4568 24.2009 14.6443 24.2009 14.7615C24.2009 15.3006 24.154 15.8397 24.0602 16.3787C24.0368 16.449 23.8258 16.5662 23.6618 16.66C23.4274 16.7772 23.2165 16.8943 23.1696 17.0818C22.654 18.8865 21.5524 20.4803 20.0759 21.6053C22.2555 19.3318 23.3102 15.5818 21.6227 12.6053ZM20.1462 21.8162C21.6696 20.6443 22.8415 19.0037 23.3571 17.1522C23.3805 17.0818 23.5915 16.9647 23.7321 16.8709C23.9665 16.7537 24.2008 16.6131 24.2477 16.4256C24.3415 15.8865 24.3883 15.324 24.3883 14.7615C24.3883 14.5506 24.1774 14.3397 23.9665 14.1287C23.8493 13.9881 23.6618 13.824 23.6618 13.7068C23.4743 11.9959 22.7946 10.3787 21.7399 9.04278C21.2712 6.23028 19.3962 5.3631 19.3493 5.33966C19.3962 5.40997 20.6149 7.16779 19.7712 9.23029C18.904 11.3162 16.6774 10.9881 16.4899 11.0115C16.3024 11.0115 15.5759 11.949 14.6618 13.6834C14.5446 13.6365 14.0524 13.5193 13.4899 13.6131C13.9118 12.4412 14.5446 10.7772 14.6618 10.6365C14.7087 10.5897 15.0602 10.4959 15.2946 10.4256C15.7399 10.3084 15.9509 10.2381 16.0212 10.1444C16.068 10.074 16.3024 9.53497 16.5368 8.97247C16.7477 8.97247 17.2868 8.9256 17.3337 8.90216C17.3805 8.85529 17.8259 7.70685 17.8259 7.56622C17.8259 7.44903 16.9118 5.1756 16.5602 4.30841C16.7243 4.12091 16.8884 3.88653 17.0524 3.62872C21.8571 4.14435 25.6071 8.22247 25.6071 13.1678C25.6071 16.9647 23.3805 20.2693 20.1462 21.8162Z" stroke="url(#paint7_linear_402_26013)" stroke-width="1.125" stroke-linejoin="round" mask="url(#path-3-outside-1_402_26013)"/>
    <path d="M13.9118 9.15996C14.3571 8.64434 14.1227 7.6834 13.3024 7.51934C13.5134 7.02715 13.818 6.04278 13.818 6.04278C13.818 6.04278 11.4274 9.79278 11.2165 9.86309C11.0055 9.9334 10.7946 9.11309 10.7946 9.11309C10.3493 10.824 11.5446 11.0584 11.6852 10.5193C12.3415 10.3553 13.4665 9.65215 13.9118 9.15996Z" stroke="url(#paint8_linear_402_26013)" stroke-width="1.125" stroke-linejoin="round" mask="url(#path-3-outside-1_402_26013)"/>
    <path d="M8.84961 13.3086L9.59961 7.66016L3.08398 3.13672L9.03711 5.15234L10.4434 2.99609L15.5762 -0.191406L26.8965 6.04297L27.4824 15.5586L22.4434 22.5664L18.459 23.1758L20.5215 19.4023V15.7695L19.0215 12.9336L17.498 11.9258L15.1543 14.3398V16.8945L13.3262 18.6055L11.0059 18.8867L9.97461 19.4727L8.28711 18.9336L7.58398 16.4023L8.84961 14.6211V13.3086Z" fill="white"/>
    <path d="M19.2559 3.08981C18.0137 2.832 16.6543 2.90231 16.6543 2.90231C16.6543 2.90231 16.209 4.96481 13.4434 5.50388C13.4668 5.50388 17.0996 6.74606 19.2559 3.08981Z" fill="#94A6C3"/>
    <path d="M20.3809 21.793C21.8809 20.6211 23.0059 19.0039 23.5215 17.1758C23.5449 17.1055 23.7559 16.9883 23.8965 16.8945C24.1309 16.7539 24.3652 16.6367 24.4121 16.4492C24.5059 15.9101 24.5527 15.3476 24.5527 14.7851C24.5527 14.5742 24.3418 14.3633 24.1309 14.1523C23.9668 14.0117 23.8027 13.8476 23.8027 13.7305C23.5684 11.5976 22.584 9.60546 21.0137 8.15234L20.8496 8.3164C22.373 9.74609 23.3574 11.6914 23.5684 13.7539C23.5918 13.9414 23.7793 14.1289 23.9668 14.3164C24.1309 14.457 24.3184 14.668 24.3184 14.7617C24.3184 15.3008 24.2715 15.8398 24.1777 16.3789C24.1543 16.4726 23.9434 16.5664 23.7793 16.6601C23.5449 16.7773 23.334 16.8945 23.2871 17.082C22.7246 19.0742 21.4355 20.8086 19.7246 21.9336C20.0293 21.2773 20.9902 19.1445 21.5059 18.0664L21.4121 14.5976L18.4355 11.7148L16.748 11.9492L14.8965 14.9492C14.8965 14.9492 15.7637 16.0508 14.5449 17.3398C13.3496 18.6055 12.4121 18.8867 12.4121 18.8867L11.5449 18.418C11.8027 18.0898 12.3184 17.5976 12.7168 17.2695C13.3965 16.707 14.0762 16.6601 14.0762 16.0508C14.0996 14.7851 12.7402 15.1367 12.7402 15.1367L12.248 15.6055L12.0371 17.3398L11.0059 18.6289L10.8887 18.6055L9.20117 18.2305C9.20117 18.2305 10.2324 17.6914 10.3965 17.082C10.5605 16.4961 10.0684 14.5508 10.0449 14.4336C10.0684 14.457 10.5371 14.8555 10.748 15.5117C11.123 14.4805 11.6152 13.4961 11.7559 13.4023C11.8965 13.3086 13.7949 12.3008 13.7949 12.3008L13.1621 13.9648L13.6309 13.707L14.7559 10.9414C14.7559 10.9414 15.8574 10.4023 16.6777 10.4023C18.1543 10.3789 20.334 8.57421 19.3496 5.33984C19.6309 5.45702 24.5059 7.89452 25.3496 12.6758C25.9824 16.3555 23.8965 19.8008 20.3809 21.793Z" fill="#94A6C3"/>
    <path d="M14.8024 3.60526C15.3415 2.97245 15.1306 2.03495 15.1306 2.03495L13.5602 4.35526C13.5368 4.35526 14.1227 4.3787 14.8024 3.60526Z" fill="#0D1928"/>
    <path d="M9.52899 16.285L9.71649 15.3475C9.71649 15.3475 8.94305 16.7069 8.87274 16.8944C8.80243 17.1053 8.91961 17.4803 9.2243 17.4569C9.52899 17.4334 9.90399 16.9881 9.90399 16.66C9.90399 16.2381 9.52899 16.285 9.52899 16.285Z" fill="#0D1928"/>
    <path d="M24.8215 1.80475C24.8215 1.80475 25.1731 0.961003 26.3918 1.10163C23.6496 -1.05462 20.4977 -1.22284 18.3884 -1.22284C15.4821 -1.22284 14.029 -0.632747 13.9118 -0.562435L14.3102 -1.41034C14.3102 -1.41034 11.193 -4.664 9.90399 -0.796808C9.57586 -1.61712 8.73211 0.0896609 8.73211 0.0896609C8.73211 0.0896609 6.83367 1.75372 7.7243 4.51935C5.54461 3.72247 2.42742 2.62091 2.31023 2.59747C2.14617 2.57404 2.0993 2.64435 2.0993 2.64435C2.0993 2.64435 2.05242 2.71466 2.19305 2.83185C2.45086 3.04279 7.37273 6.6756 8.45086 7.37873C8.21648 8.22248 8.21648 8.62091 8.45086 9.01935C8.77898 9.55841 8.80242 9.83966 8.75554 10.2381C8.70867 10.6365 8.2868 14.0818 8.19305 14.5037C8.0993 14.9256 7.11492 16.4256 7.1618 16.8709C7.20867 17.3162 7.81805 19.2147 8.35711 19.4256C8.75555 19.5662 9.73992 19.8709 10.3962 19.8709C10.6305 19.8709 10.8415 19.824 10.9352 19.7303C11.3337 19.3787 11.4509 19.3084 11.7321 19.3084C11.7555 19.3084 11.779 19.3084 11.8024 19.3084C11.9196 19.3084 12.0602 19.3319 12.2243 19.3319C12.5993 19.3319 13.0915 19.2615 13.443 18.9334C13.9587 18.4178 14.8493 17.7147 15.1305 17.3865C15.4821 16.9412 15.6696 16.3319 15.5759 15.7225C15.5055 15.16 15.8102 14.6678 16.1618 14.1756C16.6071 13.5897 17.4274 12.535 17.4274 12.535C19.0446 13.7537 20.0524 15.6053 20.0524 17.6678C20.0524 21.324 16.8649 24.5584 12.9274 24.5584C12.318 24.5584 11.6965 25.1485 11.1106 25.0079C12.9152 25.6407 14.4743 24.91 15.7165 24.91C18.3649 24.91 18.9152 24.2772 18.9152 24.2772C18.9152 24.2772 19.279 24.5819 18.4821 25.3084C18.5055 25.3084 18.5055 25.3084 18.5055 25.3084C22.8884 24.699 25.1027 24.5584 25.1027 24.5584C25.1027 24.5584 26.1926 22.6055 25.9817 23.4024C31.8176 19.0196 29.4977 13.1912 29.4743 13.0037C29.5212 13.074 30.1071 13.7772 30.4118 14.1522C31.3493 4.49591 24.8215 1.80475 24.8215 1.80475ZM14.4743 16.8006C14.3805 16.9178 13.9821 17.2694 13.7009 17.5272C13.4196 17.785 13.1149 18.0428 12.8805 18.2772C12.7868 18.3709 12.5993 18.4178 12.318 18.4178C12.2243 18.4178 12.1305 18.4178 12.0602 18.4178C12.0134 18.4178 11.9665 18.4178 11.9196 18.4178C11.8727 18.4178 11.8493 18.4178 11.8259 18.4178C11.7555 18.4178 11.6852 18.4178 11.6149 18.4178C11.9665 17.949 12.9977 16.8709 13.3493 16.6365C13.7712 16.3553 13.9821 16.074 13.7243 15.5819C13.4665 15.0897 12.7868 15.2068 12.7868 15.2068C12.7868 15.2068 13.1852 15.0428 13.5368 15.0428C13.0915 14.9256 12.529 15.0428 12.2712 15.3006C11.9899 15.5584 12.0368 16.4725 11.9196 17.0584C11.8024 17.6678 11.404 17.9725 10.7946 18.535C10.4665 18.8397 10.2321 18.9334 10.0446 18.9334C9.64617 18.8631 9.17742 18.7459 8.84929 18.6287C8.61492 18.324 8.26336 17.3162 8.16961 16.8944C8.23992 16.66 8.52117 16.1678 8.6618 15.8865C8.94305 15.3475 9.10711 15.0428 9.15398 14.7615C9.24773 14.3631 9.55242 11.9022 9.66961 10.8709C9.9743 11.2694 10.3962 11.9256 10.3024 12.3475C10.9821 11.3865 10.4899 10.449 10.2555 10.074C10.0446 9.69904 9.76336 8.94904 9.99773 8.15216C10.2321 7.35529 11.0759 5.15216 11.0759 5.15216C11.0759 5.15216 11.3571 5.64435 11.7555 5.5506C12.154 5.45685 15.3649 0.628722 15.3649 0.628722C15.3649 0.628722 16.2321 2.52716 15.318 3.90997C14.3805 5.29279 13.4665 5.5506 13.4665 5.5506C13.4665 5.5506 14.7555 5.78497 15.9509 4.91779C16.443 6.06622 16.9118 7.26154 16.9352 7.4256C16.8649 7.58966 15.9274 9.83966 15.8337 9.98029C15.7868 10.0272 15.4587 10.1209 15.2243 10.1678C14.8259 10.285 14.5915 10.3553 14.4977 10.4256C14.3337 10.5662 13.5837 12.6287 13.2321 13.6365C12.8102 13.7537 12.3884 13.9881 12.0837 14.4568C12.2477 14.3397 12.7634 14.2693 13.1384 14.2225C13.4665 14.199 14.4743 14.7381 14.7321 15.7459C14.7321 15.7694 14.7321 15.7694 14.7321 15.7928C14.779 16.1678 14.6618 16.5194 14.4743 16.8006ZM12.2712 17.0819C12.4821 16.7772 12.4587 16.2615 12.4821 16.0975C12.5055 15.9334 12.5524 15.6287 12.7399 15.5819C12.9274 15.535 13.3727 15.6053 13.3727 15.9334C13.3727 16.2381 13.0446 16.3084 12.8102 16.5194C12.6462 16.6834 12.318 17.035 12.2712 17.0819ZM21.6227 12.6053C21.8571 11.41 21.8805 10.3787 21.8102 9.53498C22.7243 10.7537 23.2868 12.2303 23.4509 13.7537C23.4743 13.9412 23.6618 14.1287 23.8493 14.3162C24.0134 14.4568 24.2009 14.6443 24.2009 14.7615C24.2009 15.3006 24.154 15.8397 24.0602 16.3787C24.0368 16.449 23.8259 16.5662 23.6618 16.66C23.4274 16.7772 23.2165 16.8944 23.1696 17.0819C22.654 18.8865 21.5524 20.4803 20.0759 21.6053C22.2555 19.3319 23.3102 15.5819 21.6227 12.6053ZM20.1462 21.8162C21.6696 20.6443 22.8415 19.0037 23.3571 17.1522C23.3805 17.0819 23.5915 16.9647 23.7321 16.8709C23.9665 16.7537 24.2009 16.6131 24.2477 16.4256C24.3415 15.8865 24.3884 15.324 24.3884 14.7615C24.3884 14.5506 24.1774 14.3397 23.9665 14.1287C23.8493 13.9881 23.6618 13.824 23.6618 13.7068C23.4743 11.9959 22.7946 10.3787 21.7399 9.04279C21.2712 6.23029 19.3962 5.3631 19.3493 5.33966C19.3962 5.40997 20.6149 7.16779 19.7712 9.23029C18.904 11.3162 16.6774 10.9881 16.4899 11.0115C16.3024 11.0115 15.5759 11.949 14.6618 13.6834C14.5446 13.6365 14.0524 13.5193 13.4899 13.6131C13.9118 12.4412 14.5446 10.7772 14.6618 10.6365C14.7087 10.5897 15.0602 10.4959 15.2946 10.4256C15.7399 10.3084 15.9509 10.2381 16.0212 10.1444C16.068 10.074 16.3024 9.53497 16.5368 8.97247C16.7477 8.97247 17.2868 8.9256 17.3337 8.90216C17.3805 8.85529 17.8259 7.70685 17.8259 7.56622C17.8259 7.44904 16.9118 5.1756 16.5602 4.30841C16.7243 4.12091 16.8884 3.88654 17.0524 3.62872C21.8571 4.14435 25.6071 8.22247 25.6071 13.1678C25.6071 16.9647 23.3805 20.2693 20.1462 21.8162Z" fill="#0D1928"/>
    <path d="M13.9118 9.15997C14.3571 8.64434 14.1227 7.6834 13.3024 7.51934C13.5134 7.02715 13.818 6.04278 13.818 6.04278C13.818 6.04278 11.4274 9.79278 11.2165 9.86309C11.0055 9.9334 10.7946 9.11309 10.7946 9.11309C10.3493 10.824 11.5446 11.0584 11.6852 10.5193C12.3415 10.3553 13.4665 9.65215 13.9118 9.15997Z" fill="#0D1928"/>
    <path d="M11.873 10.0742L13.0918 7.98828C13.0918 7.98828 13.7949 8.33984 13.4434 8.90234C12.998 9.55859 11.873 10.0742 11.873 10.0742Z" fill="#FFD923"/>
    <path d="M26.943 19.7304C26.5914 20.1992 26.193 20.6914 25.7242 21.1601C28.7477 15.3476 25.8648 10.0273 25.7477 9.81639C25.9586 10.0273 26.1695 10.2617 26.357 10.4726C28.6773 13.0508 28.9586 16.9179 26.943 19.7304Z" fill="#D82122"/>
    <path d="M29.7555 12.2539C28.7008 9.41794 27.2008 7.00388 23.8961 4.82419C20.7086 2.71482 17.2867 2.87888 17.0992 2.90232C17.0758 2.90232 17.0524 2.90232 17.0524 2.90232C17.1695 2.85544 17.2867 2.83201 17.4039 2.80857C18.1305 2.57419 19.068 2.38669 20.0055 2.26951C22.4898 1.91794 24.9977 2.76169 26.7086 4.56638C26.732 4.58982 26.732 4.58982 26.7555 4.61326C28.7008 6.67576 29.7086 9.25388 29.7555 12.2539Z" fill="#D82122"/>
    <path d="M23.1461 0.652378C19.6539 -0.0038718 17.4039 0.324253 15.7867 0.933628C15.7399 0.746128 15.5758 0.371128 15.4352 0.0664406C14.943 0.652378 14.4274 1.3555 14.0992 1.80082C13.2086 2.41019 12.8336 2.99613 12.8336 2.99613C13.3492 1.23832 14.8492 -0.0741844 16.6774 -0.402309C17.193 -0.496059 17.7555 -0.542934 18.3649 -0.542934C19.982 -0.519497 21.5992 -0.121059 23.1461 0.652378Z" fill="#D82122"/>
    <path d="M10.2321 5.15238C7.48986 5.05863 8.40393 1.87113 8.4508 1.68363C8.4508 1.70707 8.6383 4.19144 10.2321 5.15238Z" fill="#D82122"/>
    <path d="M12.9274 -0.589844C10.818 0.675781 11.2399 3.69922 11.2399 3.69922C9.22423 0.628906 12.7633 -0.519531 12.9274 -0.589844Z" fill="#D82122"/>
    <path d="M9.45898 5.99609C9.59961 6.11328 9.74023 6.32422 9.57617 6.62891C9.48242 6.79297 9.3418 6.76953 9.13086 6.67578C8.84961 6.53516 7.16211 5.55078 5.63867 4.54297C7.37305 5.15234 9.13086 5.80859 9.41211 5.94922C9.41211 5.94922 9.43555 5.97266 9.45898 5.99609Z" fill="white"/>
  </g>
  <defs>
    <radialGradient id="paint0_radial_402_26013" cx="0" cy="0" r="1" gradientUnits="userSpaceOnUse" gradientTransform="translate(27 -3) rotate(135.971) scale(41.7253 26.3904)">
      <stop stop-color="#278CE6"/>
      <stop offset="1" stop-color="#278CE6" stop-opacity="0"/>
    </radialGradient>
    <linearGradient id="paint1_linear_402_26013" x1="16.2904" y1="-2.69043" x2="16.2904" y2="26.6209" gradientUnits="userSpaceOnUse">
      <stop stop-color="#16395C"/>
      <stop offset="0.276042" stop-color="#22436A"/>
      <stop offset="1" stop-color="#0D1928" stop-opacity="0"/>
    </linearGradient>
    <linearGradient id="paint2_linear_402_26013" x1="16.2904" y1="-2.69043" x2="16.2904" y2="26.6209" gradientUnits="userSpaceOnUse">
      <stop stop-color="#16395C"/>
      <stop offset="0.276042" stop-color="#22436A"/>
      <stop offset="1" stop-color="#0D1928" stop-opacity="0"/>
    </linearGradient>
    <linearGradient id="paint3_linear_402_26013" x1="16.2904" y1="-2.69043" x2="16.2904" y2="26.6209" gradientUnits="userSpaceOnUse">
      <stop stop-color="#16395C"/>
      <stop offset="0.276042" stop-color="#22436A"/>
      <stop offset="1" stop-color="#0D1928" stop-opacity="0"/>
    </linearGradient>
    <linearGradient id="paint4_linear_402_26013" x1="16.2904" y1="-2.69043" x2="16.2904" y2="26.6209" gradientUnits="userSpaceOnUse">
      <stop stop-color="#16395C"/>
      <stop offset="0.276042" stop-color="#22436A"/>
      <stop offset="1" stop-color="#0D1928" stop-opacity="0"/>
    </linearGradient>
    <linearGradient id="paint5_linear_402_26013" x1="-0.350372" y1="5.95319" x2="24.6809" y2="17.6954" gradientUnits="userSpaceOnUse">
      <stop stop-color="#213E61"/>
      <stop offset="0.291268" stop-color="#2B6FB3"/>
      <stop offset="0.613602" stop-color="#214167"/>
      <stop offset="0.719487" stop-color="#3187DB"/>
      <stop offset="0.829" stop-color="#2B6DAF"/>
      <stop offset="1" stop-color="#224167"/>
    </linearGradient>
    <linearGradient id="paint6_linear_402_26013" x1="-0.350372" y1="5.95319" x2="24.6809" y2="17.6954" gradientUnits="userSpaceOnUse">
      <stop stop-color="#213E61"/>
      <stop offset="0.291268" stop-color="#2B6FB3"/>
      <stop offset="0.613602" stop-color="#214167"/>
      <stop offset="0.719487" stop-color="#3187DB"/>
      <stop offset="0.829" stop-color="#2B6DAF"/>
      <stop offset="1" stop-color="#224167"/>
    </linearGradient>
    <linearGradient id="paint7_linear_402_26013" x1="-0.350372" y1="5.95319" x2="24.6809" y2="17.6954" gradientUnits="userSpaceOnUse">
      <stop stop-color="#213E61"/>
      <stop offset="0.291268" stop-color="#2B6FB3"/>
      <stop offset="0.613602" stop-color="#214167"/>
      <stop offset="0.719487" stop-color="#3187DB"/>
      <stop offset="0.829" stop-color="#2B6DAF"/>
      <stop offset="1" stop-color="#224167"/>
    </linearGradient>
    <linearGradient id="paint8_linear_402_26013" x1="-0.350372" y1="5.95319" x2="24.6809" y2="17.6954" gradientUnits="userSpaceOnUse">
      <stop stop-color="#213E61"/>
      <stop offset="0.291268" stop-color="#2B6FB3"/>
      <stop offset="0.613602" stop-color="#214167"/>
      <stop offset="0.719487" stop-color="#3187DB"/>
      <stop offset="0.829" stop-color="#2B6DAF"/>
      <stop offset="1" stop-color="#224167"/>
    </linearGradient>
    <clipPath id="clip0_402_26013">
      <rect width="24" height="24" rx="5.625" fill="white"/>
    </clipPath>
  </defs>
</svg>
