<svg width="40" height="40" viewBox="0 0 40 40" fill="none" xmlns="http://www.w3.org/2000/svg">
  <g clip-path="url(#clip0_469_28741)">
    <path opacity="0.5" fill-rule="evenodd" clip-rule="evenodd" d="M31.418 7.00501C30.2484 6.24606 29.4155 5.91733 29.4155 5.91733C29.4155 5.91733 29.9624 5.9392 30.7455 5.99589C31.0464 6.01767 31.3821 6.04459 31.7351 6.07738C32.0164 6.10351 32.3087 6.13337 32.603 6.16733C32.0851 5.76009 31.571 5.39361 31.0619 5.06451C27.9772 3.07023 25.0796 2.44858 22.6655 2.44858C20.535 2.44858 18.7824 2.93034 17.6102 3.3797C16.6655 3.74182 16.0978 4.08289 16.013 4.13385L16.0093 4.13608L17.228 2.19858L17.3192 1.25057C17.648 1.2822 17.937 1.48203 18.0828 1.77857C18.1445 1.90428 18.1768 2.03975 18.1801 2.17542C19.3643 1.80861 20.8927 1.4962 22.6655 1.4962C25.6845 1.4962 29.3622 2.40746 33.1917 5.41868C33.5266 5.68207 33.6459 6.13592 33.4836 6.52995C33.3988 6.73585 33.248 6.89922 33.0629 7.00133C33.7525 7.52945 34.4927 8.17599 35.2205 8.95434C37.8586 11.7755 40.2995 16.2961 39.6447 23.0406C39.6073 23.4251 39.3415 23.7489 38.9716 23.8604C38.8024 23.9114 38.6267 23.9134 38.4626 23.8717C38.249 26.7548 36.9921 31.5215 31.5812 35.5851C31.2568 35.8287 30.8137 35.8401 30.4772 35.6135C30.3409 35.5217 30.2342 35.399 30.1625 35.2595C30.108 35.3103 30.0525 35.3613 29.996 35.4125C28.4574 36.8052 26.1158 38.3271 22.9529 38.7669C22.9094 38.7729 22.8656 38.7759 22.8217 38.7759H22.7905C22.3973 38.7759 22.0445 38.5343 21.9024 38.1676C21.879 38.1072 21.8621 38.0454 21.8515 37.9831C21.071 38.1384 20.153 38.2447 19.103 38.2447C17.3359 38.2447 15.1983 37.9441 12.6941 37.066C12.2155 36.8982 11.9524 36.3848 12.0957 35.8983C12.2389 35.4117 12.7383 35.1229 13.2315 35.2412C13.9406 35.4114 14.6472 35.4962 15.3843 35.4962C20.1773 35.4962 23.9319 31.9186 23.9319 27.6361C23.9319 25.5251 23.0366 23.5889 21.5288 22.1598C21.5247 22.1652 21.5205 22.1706 21.5163 22.176C21.1721 22.6207 20.7573 23.1585 20.4636 23.5447C19.9884 24.2116 19.8217 24.5804 19.8593 24.9143C20.0214 26.0007 19.6867 27.0691 19.0693 27.8512C19.0613 27.8613 19.0532 27.8711 19.0449 27.8809C18.8005 28.166 18.336 28.571 17.9222 28.9318C17.9033 28.9483 17.8845 28.9647 17.8659 28.9809C17.4492 29.3444 17.0414 29.7007 16.7452 29.997C16.7374 30.0047 16.7296 30.0123 16.7216 30.0198C15.9836 30.7086 15.0206 30.8072 14.4468 30.8072C14.2879 30.8072 14.1448 30.7952 14.0481 30.787L14.0428 30.7866C14.0415 30.7865 14.0402 30.7864 14.0388 30.7863C13.9441 30.7783 13.9081 30.7759 13.8843 30.7759H13.7905C13.7748 30.7759 13.7628 30.7762 13.7541 30.7766C13.7363 30.7878 13.7045 30.8095 13.6533 30.8497C13.5834 30.9045 13.4952 30.9795 13.3727 31.0873C13.1383 31.3074 12.8577 31.4037 12.6699 31.4506C12.4521 31.5051 12.2233 31.5259 12.0093 31.5259C11.4532 31.5259 10.8156 31.4013 10.2917 31.2714C9.75265 31.1377 9.26206 30.9797 8.97353 30.8779C8.96345 30.8743 8.95342 30.8706 8.94346 30.8667C8.66888 30.7593 8.46334 30.5778 8.32313 30.4281C8.17572 30.2707 8.04788 30.0913 7.93866 29.9159C7.72026 29.5653 7.52583 29.1487 7.36488 28.7516C7.05428 27.9852 6.79504 27.1049 6.74961 26.6733C6.71945 26.3867 6.78931 26.115 6.84127 25.9451C6.90107 25.7496 6.98422 25.5455 7.07087 25.3526C7.24145 24.9727 7.46548 24.5491 7.65839 24.1843L7.66661 24.1688C7.80332 23.9103 7.92326 23.6832 8.01575 23.4933C8.06161 23.3991 8.09578 23.324 8.11941 23.2665C8.1358 23.2266 8.14242 23.2064 8.14395 23.2019C8.19625 22.9549 8.35908 21.7447 8.52548 20.4412C8.68928 19.1581 8.84512 17.8801 8.8759 17.6185C8.90172 17.3991 8.89792 17.2925 8.87575 17.1912C8.85172 17.0813 8.78997 16.9088 8.60198 16.6C8.60017 16.597 8.59838 16.594 8.5966 16.5911C8.59593 16.5899 8.59527 16.5888 8.59461 16.5877C8.17834 15.88 8.15738 15.1843 8.33263 14.333C6.20634 12.8561 0.803062 8.86552 0.468677 8.59193C0.466463 8.59012 0.464258 8.5883 0.462061 8.58647C0.264216 8.4216 0.0629836 8.1774 0.00192901 7.8416C-0.0283267 7.67519 -0.0172946 7.51829 0.0183841 7.38152C0.0357546 7.31493 0.0581576 7.25609 0.0818785 7.20541C0.0937365 7.18008 0.105963 7.1567 0.118135 7.13529C0.124225 7.12457 0.130315 7.11433 0.136358 7.10454C0.13938 7.09965 0.142392 7.09487 0.145389 7.09021C0.146887 7.08788 0.148382 7.08557 0.149872 7.08329L0.152105 7.0799L0.153219 7.07822C0.153774 7.07738 0.154331 7.07654 0.94676 7.60483C0.94676 7.60483 0.88426 7.69858 1.07176 7.85483C1.08696 7.86726 1.11431 7.88862 1.15284 7.91816C1.15901 7.92289 1.16547 7.92783 1.1722 7.93297C1.26879 8.00674 1.42341 8.12302 1.62423 8.27295C1.89525 8.4753 2.25041 8.73896 2.66056 9.04217C4.78782 10.6148 8.39447 13.2514 9.4155 13.9173C9.103 15.0423 9.103 15.5736 9.4155 16.1048C9.853 16.8236 9.88425 17.1986 9.82175 17.7298C9.75925 18.2611 9.19675 22.8548 9.07175 23.4173C9.0213 23.6444 8.77739 24.1056 8.50851 24.614C8.11124 25.3652 7.65948 26.2195 7.69676 26.5736C7.75926 27.1673 8.57175 29.6986 9.2905 29.9798C9.82175 30.1673 11.1343 30.5736 12.0093 30.5736C12.3218 30.5736 12.603 30.5111 12.728 30.3861C13.2593 29.9173 13.4155 29.8236 13.7905 29.8236H13.8843C13.9558 29.8236 14.0339 29.8301 14.1185 29.8372H14.1186C14.2188 29.8456 14.3282 29.8548 14.4468 29.8548C14.9468 29.8548 15.603 29.7611 16.0718 29.3236C16.3958 28.9995 16.831 28.6199 17.2398 28.2633C17.6982 27.8633 18.1235 27.4923 18.3217 27.2611C18.7905 26.6673 19.0405 25.8548 18.9155 25.0423C18.8217 24.2923 19.228 23.6361 19.6967 22.9798C20.2905 22.1986 21.3842 20.7923 21.3842 20.7923C21.4604 20.8497 21.5356 20.9082 21.6098 20.9677C21.784 21.1076 21.9525 21.2531 22.115 21.404C23.8398 23.0058 24.8842 25.2116 24.8842 27.6361C24.8842 31.8564 21.6991 35.3741 17.4374 36.2428C16.7763 36.3775 16.0893 36.4486 15.3843 36.4486C14.5718 36.4486 13.7905 36.3548 13.0093 36.1673C13.8463 36.4608 14.638 36.6863 15.3843 36.8555C16.126 37.0237 16.8229 37.1363 17.475 37.205C18.0529 37.2659 18.5955 37.2923 19.103 37.2923C20.4517 37.2923 21.5588 37.1054 22.4121 36.8744C23.793 36.5005 24.5092 36.0111 24.5092 36.0111C24.5092 36.0111 24.3241 36.2491 23.9912 36.6176C23.7182 36.9197 23.3458 37.3096 22.8947 37.7277C22.8706 37.7501 22.8463 37.7725 22.8217 37.795C22.8206 37.7961 22.8194 37.7971 22.8182 37.7982C22.809 37.8067 22.7998 37.8151 22.7905 37.8236H22.8217C23.4151 37.7411 23.9776 37.6173 24.5093 37.4615C27.223 36.6665 29.1351 35.0375 30.2675 33.8012C31.0982 32.8942 31.5092 32.1986 31.5092 32.1986C31.5092 32.1986 31.4368 32.7158 31.3218 33.3574C31.2709 33.6412 31.2116 33.9493 31.1466 34.2478C31.1032 34.4474 31.0571 34.6427 31.0092 34.8236C31.4314 34.5065 31.8269 34.1851 32.1972 33.8607C36.7748 29.8511 37.5147 25.3891 37.5474 23.0487C37.5489 22.9412 37.5489 22.8383 37.5478 22.7401C37.5478 22.7396 37.5478 22.7391 37.5477 22.7387C37.5477 22.7386 37.5477 22.7385 37.5477 22.7385C37.5477 22.7384 37.5477 22.7383 37.5477 22.7383C37.5477 22.7381 37.5477 22.7379 37.5477 22.7377C37.5477 22.7372 37.5477 22.7367 37.5477 22.7363C37.5477 22.7362 37.5477 22.7362 37.5477 22.7361C37.5477 22.736 37.5477 22.7359 37.5477 22.7358C37.5477 22.7342 37.5477 22.7325 37.5477 22.7309C37.5477 22.7308 37.5476 22.7308 37.5476 22.7307C37.5388 22.0378 37.471 21.5815 37.4514 21.45L37.449 21.4332C37.448 21.4264 37.4472 21.4211 37.4467 21.4173C37.4492 21.421 37.4527 21.4259 37.4572 21.432C37.4605 21.4365 37.4644 21.4416 37.4689 21.4474C37.5229 21.518 37.656 21.6814 37.8212 21.8826C37.9162 21.9983 38.0218 22.1266 38.1292 22.2569L38.1293 22.257L38.1294 22.2571L38.1294 22.2572L38.1306 22.2586C38.2558 22.4106 38.3832 22.5654 38.4988 22.7063C38.5705 22.7937 38.6376 22.8758 38.6967 22.9486C38.7372 22.5317 38.7653 22.124 38.7819 21.7253C38.7819 21.7252 38.7819 21.7251 38.7819 21.7251C38.7819 21.7241 38.782 21.7231 38.782 21.7221C38.782 21.7215 38.782 21.721 38.7821 21.7204C38.7821 21.7202 38.7821 21.72 38.7821 21.7197C38.7821 21.7197 38.7821 21.7196 38.7821 21.7196C38.7821 21.7194 38.7821 21.7192 38.7821 21.7191C38.7821 21.7187 38.7821 21.7183 38.7822 21.718C38.7822 21.7176 38.7822 21.7172 38.7822 21.7168C38.7822 21.7168 38.7822 21.7167 38.7822 21.7166C38.7844 21.6639 38.7863 21.6113 38.7881 21.5589C39.0684 13.2143 34.2537 8.84512 31.418 7.00501ZM10.0916 5.27916C10.114 5.35452 10.1373 5.43194 10.1614 5.51078C10.2998 5.96305 10.4647 6.46213 10.6343 6.88608C10.7933 6.40907 10.9793 5.98021 11.1859 5.59466C12.525 3.09652 14.7312 2.41686 16.0747 2.2433C16.7653 2.15409 17.228 2.19858 17.228 2.19858C17.3192 1.25057 17.3186 1.25052 17.3181 1.25047L17.3169 1.25036L17.3142 1.25011L17.3075 1.24951C17.3048 1.24927 17.3017 1.24901 17.2983 1.24873C17.2953 1.24848 17.2921 1.24822 17.2886 1.24795C17.2737 1.24677 17.2541 1.24536 17.23 1.24392C17.182 1.24102 17.1161 1.23797 17.0343 1.23632C16.871 1.23304 16.6433 1.23537 16.3676 1.25624C15.8184 1.29781 15.0651 1.41392 14.2469 1.71491C13.0821 2.14338 11.8104 2.94014 10.8213 4.36694C10.8062 4.31218 10.7925 4.26184 10.7803 4.21662C10.7585 4.1359 10.7416 4.0717 10.7302 4.0281C10.7245 4.0063 10.7202 3.98966 10.7173 3.9787L10.7142 3.96657L10.7134 3.96334C10.6316 3.64247 10.3889 3.38705 10.0726 3.28895C9.75633 3.19084 9.41177 3.2641 9.16273 3.48239L9.7905 4.19858C9.16273 3.48239 9.16235 3.48272 9.16196 3.48306L9.16113 3.48379L9.1593 3.48541L9.15494 3.48928C9.15172 3.49215 9.1479 3.49558 9.14348 3.49959C9.13466 3.50759 9.12348 3.51787 9.11015 3.5304C9.08349 3.55545 9.04816 3.58957 9.00576 3.63258C8.92107 3.71851 8.80756 3.84058 8.67838 3.99744C8.42086 4.31015 8.09569 4.76763 7.81369 5.35892C7.41068 6.20395 7.10137 7.31388 7.19366 8.63677C6.14589 8.25871 5.06053 7.87099 4.12427 7.53918C3.41233 7.28688 2.78524 7.06641 2.32556 6.9068C2.09605 6.82711 1.90629 6.7619 1.76785 6.71527C1.69903 6.69209 1.63985 6.67248 1.59355 6.65764C1.59231 6.65724 1.59073 6.65673 1.58884 6.65612C1.56385 6.64804 1.48464 6.62241 1.41479 6.60844C1.39751 6.60499 1.38014 6.60201 1.3627 6.59952C1.10465 6.56266 0.846184 6.58806 0.611257 6.69484C0.497239 6.74667 0.4021 6.81184 0.324903 6.88091C0.286734 6.91506 0.253785 6.94941 0.225527 6.98252C0.211409 6.99905 0.198472 7.01527 0.186639 7.03099C0.180722 7.03885 0.175079 7.04659 0.169699 7.05418C0.167009 7.05798 0.164384 7.06175 0.161823 7.06547L0.158031 7.07104L0.15617 7.0738L0.155248 7.07517C0.15479 7.07586 0.154332 7.07654 0.94676 7.60483C0.94676 7.60483 1.00926 7.51108 1.22801 7.54233C1.23818 7.54436 1.2653 7.55249 1.30792 7.56619C1.30905 7.56656 1.3102 7.56693 1.31136 7.5673C1.41697 7.60135 1.61395 7.6683 1.8815 7.76085C2.20218 7.87179 2.62426 8.01951 3.11189 8.19143C4.30703 8.6128 5.89601 9.17954 7.35152 9.70649C7.72861 9.84302 8.09675 9.97687 8.44675 10.1048C8.3226 9.71929 8.23909 9.3498 8.18909 8.99722C7.9408 7.24633 8.51887 5.91253 9.04847 5.10081C9.43221 4.51264 9.7905 4.19858 9.7905 4.19858C9.7905 4.19858 9.91109 4.67163 10.0916 5.27916ZM0.979619 8.46138C0.979593 8.46137 0.980253 8.46156 0.981675 8.46198C0.980355 8.4616 0.979644 8.46139 0.979619 8.46138Z" fill="#9EC5FF"/>
    <path d="M29.4162 5.91734C29.4162 5.91734 30.9787 5.97984 32.6037 6.16734C28.9475 3.29234 25.4787 2.44859 22.6662 2.44859C18.7912 2.44859 16.1662 4.04234 16.01 4.13609L17.2287 2.19859C17.2287 2.19859 12.3537 1.72985 10.635 6.88609C10.1975 5.79234 9.79124 4.19859 9.79124 4.19859C9.79124 4.19859 7.26 6.41734 8.44749 10.1048C5.54125 9.04234 1.385 7.57359 1.22875 7.54234C1.01 7.51109 0.9475 7.60484 0.9475 7.60484C0.9475 7.60484 0.885 7.69859 1.0725 7.85484C1.41625 8.13609 7.97875 12.9798 9.41624 13.9173C9.10374 15.0423 9.10374 15.5736 9.41624 16.1048C9.85374 16.8236 9.88499 17.1986 9.82249 17.7298C9.75999 18.2611 9.19749 22.8548 9.07249 23.4173C8.94749 23.9798 7.635 25.9798 7.69749 26.5736C7.75999 27.1673 8.57249 29.6986 9.29124 29.9798C9.82249 30.1673 11.135 30.5736 12.01 30.5736C12.3225 30.5736 12.6037 30.5111 12.7287 30.3861C13.26 29.9173 13.4162 29.8236 13.7912 29.8236C13.8225 29.8236 13.8537 29.8236 13.885 29.8236C14.0412 29.8236 14.2287 29.8548 14.4475 29.8548C14.9475 29.8548 15.6037 29.7611 16.0725 29.3236C16.76 28.6361 17.9475 27.6986 18.3225 27.2611C18.7912 26.6673 19.0412 25.8548 18.9162 25.0423C18.8225 24.2923 19.2287 23.6361 19.6975 22.9798C20.2912 22.1986 21.385 20.7923 21.385 20.7923C23.5412 22.4173 24.885 24.8861 24.885 27.6361C24.885 32.5111 20.635 36.4486 15.385 36.4486C14.5725 36.4486 13.7912 36.3548 13.01 36.1673C15.4162 37.0111 17.4475 37.2923 19.1037 37.2923C22.635 37.2923 24.51 36.0111 24.51 36.0111C24.51 36.0111 23.8537 36.8548 22.7912 37.8236C22.8225 37.8236 22.8225 37.8236 22.8225 37.8236C28.6662 37.0111 31.51 32.1986 31.51 32.1986C31.51 32.1986 31.2912 33.7611 31.01 34.8236C38.7912 28.9798 37.4787 21.6673 37.4475 21.4173C37.51 21.5111 38.2912 22.4486 38.6975 22.9486C39.9475 10.0736 29.4162 5.91734 29.4162 5.91734Z" fill="#1B314F"/>
    <path fill-rule="evenodd" clip-rule="evenodd" d="M16.6923 27.1974L16.6924 27.1972L16.6926 27.1971C17.0138 26.906 17.351 26.6003 17.4472 26.48C17.6972 26.105 17.8535 25.6362 17.791 25.1362V25.0737C17.4472 23.73 16.1035 23.0112 15.666 23.0425C15.166 23.105 14.4785 23.1987 14.2597 23.355C14.666 22.73 15.2285 22.4175 15.791 22.2612C16.2597 20.9175 17.2597 18.1675 17.4785 17.98C17.6035 17.8862 17.916 17.7925 18.4472 17.6362C18.7597 17.5737 19.1972 17.4487 19.2597 17.3862C19.3636 17.2304 20.2442 15.1328 20.5928 14.3024L20.5941 14.2994C20.6643 14.132 20.7127 14.0167 20.7285 13.98C20.6972 13.7612 20.0722 12.1675 19.416 10.6362C17.8222 11.7925 16.1035 11.48 16.1035 11.48C16.1035 11.48 17.3222 11.1362 18.5722 9.29248C19.791 7.44873 18.6347 4.91748 18.6347 4.91748C18.6347 4.91748 14.3535 11.355 13.8222 11.48C13.291 11.605 12.916 10.9487 12.916 10.9487C12.916 10.9487 11.791 13.8862 11.4785 14.9487C11.166 16.0112 11.541 17.0112 11.8222 17.5112C12.1347 18.0112 12.791 19.2612 11.8847 20.5425C12.0097 19.98 11.4472 19.105 11.041 18.5737C10.8847 19.9487 10.4785 23.23 10.3535 23.7612C10.2939 24.1185 10.0925 24.5042 9.74931 25.1615L9.69724 25.2612C9.64467 25.3664 9.57737 25.4936 9.50566 25.6292C9.32158 25.9772 9.10846 26.3801 9.04099 26.605C9.16599 27.1675 9.63474 28.5112 9.94724 28.9175C10.3847 29.0737 11.0097 29.23 11.541 29.3237C11.791 29.3237 12.1035 29.1987 12.541 28.7925C12.6258 28.7141 12.7076 28.6395 12.7863 28.5679L12.7864 28.5678C13.4604 27.9531 13.9011 27.5513 14.041 26.8237C14.0931 26.5633 14.1208 26.2543 14.1486 25.9452C14.2042 25.3272 14.2597 24.7091 14.5097 24.48C14.8535 24.1362 15.6035 23.98 16.1972 24.1362C15.7285 24.1362 15.1972 24.355 15.1972 24.355C15.1972 24.355 16.1035 24.1987 16.4472 24.855C16.791 25.5112 16.5097 25.8862 15.9472 26.2612C15.4785 26.5737 14.1035 28.0112 13.6347 28.6362H14.5722C14.9472 28.6362 15.1972 28.5737 15.3222 28.4487C15.5261 28.2448 15.7699 28.0276 16.019 27.8058L16.0192 27.8056L16.0197 27.8051C16.1521 27.6872 16.2859 27.5679 16.416 27.4487C16.5019 27.3699 16.5961 27.2846 16.6917 27.1979L16.6923 27.1974ZM17.8848 8.88619C18.6035 8.04244 18.3223 6.79244 18.3223 6.79244L16.2285 9.88619C16.1973 9.88619 16.9785 9.91744 17.8848 8.88619ZM10.8535 25.7925L11.1035 24.5425C11.1035 24.5425 10.0722 26.355 9.9785 26.605C9.88475 26.8862 10.041 27.3862 10.4472 27.355C10.8535 27.3238 11.3535 26.73 11.3535 26.2925C11.3535 25.73 10.8535 25.7925 10.8535 25.7925ZM16.6972 16.2925C17.291 15.605 16.9785 14.3237 15.8847 14.105C16.166 13.4487 16.5722 12.1362 16.5722 12.1362C16.5722 12.1362 13.3847 17.1362 13.1035 17.23C12.8222 17.3237 12.541 16.23 12.541 16.23C11.9472 18.5112 13.541 18.8237 13.7285 18.105C14.6035 17.8862 16.1035 16.9487 16.6972 16.2925Z" fill="white"/>
    <path d="M14.7759 25.7389C14.7589 26.0414 14.7311 26.5353 14.5097 26.855C14.5315 26.8332 14.5988 26.7621 14.6865 26.6695L14.6867 26.6693C14.8507 26.496 15.086 26.2474 15.2285 26.105C15.3258 26.0174 15.4352 25.948 15.5398 25.8817C15.771 25.735 15.9785 25.6035 15.9785 25.3237C15.9785 24.8862 15.3847 24.7925 15.1347 24.855C14.8847 24.9175 14.8222 25.3237 14.791 25.5425C14.7843 25.5891 14.7805 25.657 14.7759 25.7389Z" fill="white"/>
    <path d="M26.9785 20.8862C27.291 19.2925 27.3222 17.9175 27.2285 16.7925C28.4472 18.4175 29.1972 20.3862 29.416 22.4175C29.4472 22.6675 29.6972 22.9175 29.9472 23.1675C30.166 23.355 30.416 23.605 30.416 23.7612C30.416 24.48 30.3535 25.1987 30.2285 25.9175C30.1989 26.0063 29.9446 26.1514 29.7319 26.2727L29.6972 26.2925C29.3847 26.4487 29.1035 26.605 29.041 26.855C28.3535 29.2612 26.8847 31.3862 24.916 32.8862C27.8222 29.855 29.2285 24.855 26.9785 20.8862Z" fill="white"/>
    <path d="M29.291 26.9487C28.6035 29.4175 27.041 31.605 25.0097 33.1675C29.3222 31.105 32.291 26.6987 32.291 21.6362C32.291 15.0425 27.291 9.60498 20.8847 8.91748C20.666 9.26123 20.4472 9.57373 20.2285 9.82373C20.6972 10.98 21.916 14.0112 21.916 14.1675C21.916 14.355 21.3222 15.8862 21.2597 15.9487C21.1972 15.98 20.4785 16.0425 20.1972 16.0425C19.8847 16.7925 19.5722 17.5112 19.5097 17.605C19.416 17.73 19.1347 17.8237 18.541 17.98C18.4778 17.9989 18.4083 18.0191 18.3371 18.0399L18.3363 18.0401L18.336 18.0402L18.3359 18.0402C18.0548 18.1219 17.747 18.2114 17.6972 18.2612C17.541 18.4487 16.6972 20.6675 16.1347 22.23C16.8847 22.105 17.541 22.2612 17.6972 22.3237C18.916 20.0112 19.8847 18.7612 20.1347 18.7612C20.1613 18.7579 20.2185 18.7599 20.301 18.7627C20.995 18.7866 23.4763 18.872 24.5097 16.3862C25.6179 13.6774 24.0578 11.3628 23.9511 11.2044L23.9472 11.1987L23.9521 11.2011C24.09 11.268 26.5198 12.4468 27.1347 16.1362C28.541 17.9175 29.4472 20.0737 29.6972 22.355C29.6972 22.4718 29.837 22.6236 29.9728 22.7711L29.973 22.7713L29.9733 22.7716C30.0189 22.8212 30.0642 22.8703 30.1035 22.9175C30.3847 23.1987 30.666 23.48 30.666 23.7612C30.666 24.5112 30.6035 25.2612 30.4785 25.98C30.416 26.23 30.1035 26.4175 29.791 26.5737C29.7486 26.6019 29.7015 26.6318 29.6535 26.6621L29.653 26.6624L29.6529 26.6625C29.4887 26.7664 29.3151 26.8762 29.291 26.9487Z" fill="white"/>
    <path d="M10.916 12.9175C11.1348 12.5112 10.9473 12.23 10.7598 12.0737L10.6973 12.0112C10.3223 11.8237 7.97851 10.9487 5.66602 10.1362C7.69726 11.48 9.94726 12.7925 10.3223 12.98C10.6035 13.105 10.791 13.1362 10.916 12.9175Z" fill="white"/>
    <path d="M16.6925 27.1972L16.6924 27.1974L16.6906 27.199C16.5954 27.2853 16.5017 27.3703 16.4161 27.4487C16.286 27.5679 16.1522 27.6872 16.0198 27.8051L16.0193 27.8056L16.019 27.8058C15.77 28.0276 15.5262 28.2448 15.3223 28.4487C15.1973 28.5737 14.9473 28.6362 14.5723 28.6362H13.6348C13.8228 28.3856 14.1566 28.0042 14.5192 27.6172C14.7189 27.4324 14.9205 27.2557 15.1035 27.1049C15.4239 26.8398 15.7444 26.6605 16.0247 26.5037C16.5373 26.217 16.916 26.0052 16.916 25.4799C16.9357 24.415 16.2212 24.2088 15.6913 24.2016C15.8493 24.165 16.0274 24.1362 16.1973 24.1362C15.6036 23.98 14.8536 24.1362 14.5098 24.48C14.2598 24.7091 14.2043 25.3272 14.1487 25.9452C14.1209 26.2543 14.0932 26.5633 14.0411 26.8237C13.9012 27.5513 13.4605 27.9531 12.7864 28.5678L12.7844 28.5696C12.7064 28.6408 12.6252 28.7148 12.5411 28.7925C12.5214 28.8107 12.5021 28.8284 12.4829 28.8455L10.416 28.3862C10.416 28.3862 11.791 27.6674 12.0098 26.8549C12.2057 26.1552 11.6997 24.0015 11.5695 23.4474C11.5543 23.3828 11.5443 23.34 11.541 23.3237C11.5429 23.3256 11.5471 23.3294 11.5533 23.3351C11.6479 23.4217 12.2146 23.9401 12.4785 24.7612C12.9785 23.3862 13.6348 22.0737 13.8223 21.9487C13.9834 21.8413 15.8749 20.8341 16.4042 20.5527C16.1727 21.1808 15.951 21.8028 15.7911 22.2612C15.2286 22.4175 14.6661 22.73 14.2598 23.355C14.4786 23.1987 15.1661 23.105 15.6661 23.0425C16.1036 23.0112 17.4473 23.73 17.7911 25.0737V25.1362C17.8536 25.6362 17.6973 26.105 17.4473 26.48C17.3511 26.6003 17.0138 26.906 16.6925 27.1972Z" fill="#94A6C3"/>
    <path d="M16.3862 22.1977C17.0275 22.1393 17.5588 22.2683 17.6973 22.3237C18.9161 20.0112 19.8848 18.7612 20.1348 18.7612C20.1614 18.7579 20.2186 18.7599 20.3011 18.7627C20.9951 18.7866 23.4764 18.872 24.5098 16.3862C25.618 13.6774 24.0579 11.3628 23.9512 11.2044L23.9473 11.1987L23.9522 11.2011C24.0873 11.2667 26.422 12.3993 27.0951 15.9141C28.6479 17.7264 29.6214 19.9897 29.8848 22.3862C29.8848 22.5424 30.1035 22.7612 30.3223 22.9487C30.6035 23.2299 30.8848 23.5112 30.8848 23.7924C30.8848 24.5424 30.8223 25.2924 30.6973 26.0112C30.6419 26.2325 30.3907 26.3803 30.117 26.5414L30.1168 26.5415L30.1166 26.5416C30.0812 26.5625 30.0455 26.5835 30.0098 26.6049C29.9673 26.6333 29.92 26.6632 29.8719 26.6936L29.8717 26.6937C29.7075 26.7976 29.5339 26.9074 29.5098 26.9799C28.8735 29.2357 27.5414 31.2506 25.7611 32.777C28.6995 31.1235 30.9152 28.3439 31.8305 25.0381C32.1344 23.7351 32.1863 22.3701 31.9473 20.9799C30.8223 14.6049 24.3223 11.355 23.9473 11.1987C25.2598 15.5112 22.3535 17.9174 20.3848 17.9487C19.291 17.9487 17.8223 18.6674 17.8223 18.6674L16.3862 22.1977Z" fill="#94A6C3"/>
    <path d="M16.4374 11.3373C16.3192 11.3662 16.1975 11.393 16.0723 11.4174C16.0735 11.4174 16.0818 11.4199 16.0969 11.4243C16.1164 11.4301 16.1471 11.4391 16.1882 11.4504C16.2455 11.4283 16.3303 11.3923 16.4374 11.3373Z" fill="#94A6C3"/>
    <path d="M16.4374 11.513C17.0144 11.5421 18.2488 11.4831 19.4161 10.6362C19.5347 10.913 19.6523 11.1918 19.7655 11.4642C18.3299 11.8493 17.0426 11.6508 16.4374 11.513Z" fill="#94A6C3"/>
    <path d="M20.7469 11.1101C21.5245 10.7522 22.3101 10.1921 23.0256 9.33534C22.3341 9.13732 21.6187 8.99624 20.8848 8.91748C20.6661 9.26123 20.4473 9.57373 20.2286 9.82373C20.358 10.1429 20.5446 10.6051 20.7469 11.1101Z" fill="#94A6C3"/>
    <path d="M26.9786 20.8862C27.2911 19.2925 27.3223 17.9175 27.2286 16.7925C28.4473 18.4175 29.1973 20.3862 29.4161 22.4175C29.4473 22.6675 29.6973 22.9175 29.9473 23.1675C30.1661 23.355 30.4161 23.605 30.4161 23.7612C30.4161 24.48 30.3536 25.1987 30.2286 25.9175C30.199 26.0063 29.9447 26.1513 29.732 26.2727L29.6973 26.2925C29.3848 26.4487 29.1036 26.605 29.0411 26.855C28.3536 29.2612 26.8848 31.3862 24.9161 32.8862C27.8223 29.855 29.2286 24.855 26.9786 20.8862Z" fill="#94A6C3"/>
    <path d="M13.9785 17.5112L15.6035 14.73C15.6035 14.73 16.541 15.1987 16.0723 15.9487C15.4785 16.8237 13.9785 17.5112 13.9785 17.5112Z" fill="#FFD923"/>
    <path d="M34.0724 30.3862C33.6036 31.0112 33.0724 31.6674 32.4474 32.2924C36.4786 24.5424 32.6349 17.4487 32.4786 17.1674C32.7599 17.4487 33.0411 17.7612 33.2911 18.0424C36.3849 21.4799 36.7599 26.6362 34.0724 30.3862Z" fill="#D82122"/>
    <path d="M37.8224 20.4174C36.4161 16.6362 34.4161 13.4174 30.0099 10.5112C25.7599 7.69869 21.1974 7.91744 20.9474 7.94869C20.9162 7.94869 20.8849 7.94869 20.8849 7.94869C21.0412 7.88619 21.1974 7.85494 21.3537 7.82369C22.3224 7.51119 23.5724 7.26119 24.8224 7.10494C28.1349 6.63619 31.4786 7.76119 33.7599 10.1674C33.7911 10.1987 33.7911 10.1987 33.8224 10.2299C36.4161 12.9799 37.7599 16.4174 37.8224 20.4174Z" fill="#D82122"/>
    <path d="M29.0099 4.94878C24.3537 4.07378 21.3537 4.51128 19.1974 5.32378C19.1349 5.07378 18.9162 4.57378 18.7287 4.16753C18.0724 4.94878 17.3849 5.88627 16.9474 6.48002C15.7599 7.29252 15.2599 8.07377 15.2599 8.07377C15.9474 5.73002 17.9474 3.98003 20.3849 3.54253C21.0724 3.41753 21.8224 3.35503 22.6349 3.35503C24.7911 3.38628 26.9474 3.91753 29.0099 4.94878Z" fill="#D82122"/>
    <path d="M11.7912 10.9488C8.13492 10.8238 9.35367 6.57377 9.41617 6.32377C9.41617 6.35502 9.66617 9.66752 11.7912 10.9488Z" fill="#D82122"/>
    <path d="M15.3849 3.29248C12.5724 4.97998 13.1349 9.01123 13.1349 9.01123C10.4474 4.91748 15.1662 3.38623 15.3849 3.29248Z" fill="#D82122"/>
  </g>
  <defs>
    <clipPath id="clip0_469_28741">
      <rect width="40" height="40" fill="white"/>
    </clipPath>
  </defs>
</svg>
